<?xml version="1.0" encoding="UTF-8" standalone="no"?>
<!DOCTYPE svg  PUBLIC '-//W3C//DTD SVG 1.1//EN'  'http://www.w3.org/Graphics/SVG/1.1/DTD/svg11.dtd'>
<svg xmlns="http://www.w3.org/2000/svg">
<defs>
<font id="Humanist521BT-Bold" horiz-adv-x="1116">
<font-face underline-position="-133" font-weight="700" descent="-410" panose-1="2 11 8 2 2 2 4 2 2 4" units-per-em="2048" unicode-range="U+0020-25CA" bbox="-74 -483 2888 1972" x-height="948" underline-thickness="197" font-family="Humanist521BT" ascent="1638" cap-height="1399"/>
<missing-glyph horiz-adv-x="2048"/>
<glyph glyph-name=".notdef" horiz-adv-x="2048"/>
<glyph glyph-name=".null" horiz-adv-x="0"/>
<glyph glyph-name="nonmarkingreturn" horiz-adv-x="2048"/>
<glyph glyph-name="space" horiz-adv-x="559" unicode=" "/>
<glyph glyph-name="exclam" horiz-adv-x="664" unicode="!" d="M152 160q0 74 52.5 127t127.5 53q76 0 128 -52t52 -128q0 -74 -52.5 -126t-127.5 -52t-127.5 52t-52.5 126zM332 1421q84 0 125 -52t41 -159q0 -121 -15.5 -253t-46.5 -275q-2 -11 -6 -31q-46 -219 -98 -219q-49 0 -81 146q-7 31 -11 49q-37 163 -55.5 308.5t-18.5 274.5 q0 107 41 159t125 52z"/>
<glyph glyph-name="quotedbl" horiz-adv-x="678" unicode='&quot;' d="M80 1438h192v-559h-192v559zM406 1438h192v-559h-192v559z"/>
<glyph glyph-name="numbersign" horiz-adv-x="1575" unicode="#" d="M709 1464h221l-146 -415h242l148 415h221l-148 -415h283l-74 -201h-280l-84 -242h290l-71 -200h-291l-148 -416h-221l148 416h-244l-149 -416h-220l146 416h-287l76 200h282l86 242h-299l74 201h297zM709 848l-88 -244h251l86 244h-249z"/>
<glyph glyph-name="dollar" d="M627 250q67 9 105 46t38 93q0 52 -34 89t-109 65v-293zM469 -229v231q-97 6 -194 43.5t-189 104.5v260q145 -97 230.5 -134.5t152.5 -37.5v362q-198 52 -298.5 154t-100.5 250q0 161 105 264.5t294 126.5v143h158v-139q79 -5 160.5 -32t168.5 -77v-256q-78 62 -159.5 96 t-169.5 41v-309q216 -73 315.5 -178.5t99.5 -259.5q0 -179 -110.5 -291t-304.5 -127v-235h-158zM469 911v258q-60 -7 -93.5 -39t-33.5 -81q0 -52 32.5 -87.5t94.5 -50.5z" unicode="$"/>
<glyph glyph-name="percent" horiz-adv-x="1991" unicode="%" d="M51 1004q0 175 121.5 296t296.5 121q174 0 296 -121.5t122 -295.5t-122 -295t-296 -121q-175 0 -296.5 121t-121.5 295zM279 1004q0 -80 55 -135.5t135 -55.5q79 0 134.5 55.5t55.5 135.5q0 79 -55 134.5t-135 55.5t-135 -55.5t-55 -134.5zM1104 391q0 175 121.5 296.5 t296.5 121.5q174 0 295.5 -121.5t121.5 -296.5q0 -173 -122 -294.5t-295 -121.5q-175 0 -296.5 121t-121.5 295zM1331 391q0 -80 55.5 -135t135.5 -55q79 0 134.5 55.5t55.5 134.5q0 80 -55 135.5t-135 55.5t-135.5 -55.5t-55.5 -135.5zM440 -25l944 1448h168l-948 -1448 h-164z"/>
<glyph glyph-name="ampersand" horiz-adv-x="1487" unicode="&amp;" d="M653 905q70 38 102.5 80t32.5 92q0 54 -35 86.5t-94 32.5q-57 0 -94 -29.5t-37 -74.5q0 -35 28.5 -77.5t96.5 -109.5zM1026 0l-100 109q-100 -67 -210 -100.5t-227 -33.5q-194 0 -319 106t-125 267q0 122 73 221t234 195q-75 99 -104 164t-29 129q0 161 120.5 263.5 t315.5 102.5q183 0 293.5 -90.5t110.5 -236.5q0 -109 -61.5 -198t-190.5 -167l190 -217q68 87 100.5 135t47.5 82h315q-73 -150 -141.5 -250t-142.5 -168l272 -313h-422zM756 299l-238 274q-76 -51 -107.5 -95t-31.5 -97q0 -72 46.5 -118t119.5 -46q52 0 104.5 20.5 t106.5 61.5z"/>
<glyph glyph-name="quotesingle" horiz-adv-x="352" unicode="&apos;" d="M80 1438h192v-559h-192v559z"/>
<glyph glyph-name="parenleft" horiz-adv-x="741" unicode="(" d="M553 -459q-223 181 -346 427.5t-123 508.5q0 252 121.5 496t349.5 448h217q-189 -210 -279 -438.5t-90 -499.5q0 -281 92 -514t279 -428h-221z"/>
<glyph glyph-name="parenright" horiz-adv-x="741" unicode=")" d="M188 1421q224 -181 347.5 -426.5t123.5 -507.5q0 -251 -122.5 -496.5t-350.5 -449.5h-217q189 210 279 440t90 500q0 281 -91 512.5t-278 427.5h219z"/>
<glyph glyph-name="asterisk" horiz-adv-x="1034" unicode="*" d="M553 928l49 -316h-172l49 316l-186 -260l-123 123l258 190l-315 -51v174l315 -51l-258 190l123 123l186 -260l-49 315h172l-49 -313l188 258l123 -123l-260 -190l316 51v-174l-316 51l260 -190l-123 -123z"/>
<glyph glyph-name="plus" horiz-adv-x="1706" unicode="+" d="M752 1221h202v-510h498v-199h-498v-512h-202v512h-498v199h498v510z"/>
<glyph glyph-name="comma" horiz-adv-x="557" unicode="," d="M199 8q-46 14 -72.5 55t-26.5 97q0 74 52 127t127 53q87 0 138.5 -58.5t51.5 -158.5q0 -158 -106 -277.5t-273 -146.5v59q55 60 82 118t27 118v14z"/>
<glyph glyph-name="hyphen" horiz-adv-x="702" unicode="-" d="M80 342v270h541v-270h-541z"/>
<glyph glyph-name="period" horiz-adv-x="557" unicode="." d="M100 160q0 74 52 127t127 53q76 0 128 -52t52 -128q0 -74 -53 -126t-127 -52q-75 0 -127 51.5t-52 126.5z"/>
<glyph glyph-name="slash" horiz-adv-x="584" unicode="/" d="M449 1421h157l-520 -1611h-156z"/>
<glyph glyph-name="zero" d="M57 698q0 334 136 528.5t364 194.5q229 0 364.5 -194t135.5 -529q0 -334 -135.5 -528.5t-364.5 -194.5q-228 0 -364 195t-136 528zM389 698q0 -235 41 -346.5t127 -111.5t128 112.5t42 345.5q0 234 -42 347.5t-128 113.5t-127 -112t-41 -349z" unicode="0"/>
<glyph glyph-name="one" d="M399 0v1399h318v-1399h-318z" unicode="1"/>
<glyph glyph-name="two" d="M63 0v45q367 434 473.5 611.5t106.5 306.5q0 102 -55 153t-166 51q-67 0 -144 -36.5t-192 -124.5v276q105 71 214.5 106t223.5 35q209 0 332 -108.5t123 -292.5q0 -143 -92.5 -307t-329.5 -426h475v-289h-969z" unicode="2"/>
<glyph glyph-name="three" d="M94 66v270q90 -58 164 -84.5t148 -26.5q117 0 178 47.5t61 137.5q0 86 -60.5 136.5t-170.5 55.5v250q99 3 157 51.5t58 128.5q0 70 -57 112t-154 42q-68 0 -134.5 -19t-140.5 -59v240q71 37 157 55t194 18q204 0 325 -96.5t121 -257.5q0 -105 -50.5 -182.5t-156.5 -134.5 q123 -48 184.5 -139t61.5 -226q0 -188 -134.5 -299t-365.5 -111q-120 0 -217 23t-168 68z" unicode="3"/>
<glyph glyph-name="four" d="M604 0v346h-575v236l669 833h207v-852h133v-217h-133v-346h-301zM604 563l4 430l-344 -430h340z" unicode="4"/>
<glyph glyph-name="five" d="M102 322q75 -48 151 -72.5t148 -24.5q122 0 187 54.5t65 156.5q0 92 -76 148.5t-202 56.5q-39 0 -84 -7.5t-105 -23.5v789h756v-279h-475v-245q11 1 23.5 1.5t35.5 0.5q218 0 342.5 -120.5t124.5 -330.5q0 -208 -141 -329.5t-385 -121.5q-113 0 -200.5 18t-164.5 56v273z " unicode="5"/>
<glyph glyph-name="six" d="M489 844q34 15 71 22.5t77 7.5q183 0 296.5 -117t113.5 -304q0 -210 -134.5 -344t-347.5 -134q-223 0 -356 140.5t-133 376.5q0 281 163.5 533.5t442.5 399.5l164 -206q-132 -80 -221 -174t-136 -201zM408 594q-10 -36 -14.5 -67.5t-4.5 -61.5q0 -105 45.5 -164 t124.5 -59q83 0 132.5 55t49.5 145q0 98 -48 154.5t-132 56.5q-44 0 -81 -14t-72 -45z" unicode="6"/>
<glyph glyph-name="seven" d="M246 63l401 1063h-563v273h979l-539 -1442z" unicode="7"/>
<glyph glyph-name="eight" d="M283 745q-86 46 -129 121t-43 176q0 170 122.5 274.5t323.5 104.5t325 -105t124 -274q0 -101 -44 -175.5t-131 -121.5q108 -50 163 -138.5t55 -211.5q0 -190 -134 -305t-358 -115t-357.5 115t-133.5 305q0 123 54.5 211.5t162.5 138.5zM403 1016q0 -89 40 -138t114 -49 t115 49t41 138q0 97 -39 144.5t-117 47.5t-116 -47.5t-38 -144.5zM557 625q-81 0 -125.5 -56.5t-44.5 -158.5q0 -109 43 -164.5t127 -55.5q85 0 127.5 55.5t42.5 164.5q0 102 -44.5 158.5t-125.5 56.5z" unicode="8"/>
<glyph glyph-name="nine" d="M621 555q-32 -14 -68.5 -21.5t-79.5 -7.5q-183 0 -297.5 116.5t-114.5 303.5q0 210 135.5 343.5t348.5 133.5q223 0 355 -139t132 -375q0 -283 -163 -536.5t-441 -399.5l-166 207q133 81 223 174.5t136 200.5zM702 805q10 36 14.5 67.5t4.5 61.5q0 104 -45.5 163.5 t-124.5 59.5q-83 0 -132.5 -54t-49.5 -145q0 -97 48 -153.5t132 -56.5q43 0 79.5 13t73.5 44z" unicode="9"/>
<glyph glyph-name="colon" horiz-adv-x="557" unicode=":" d="M100 160q0 74 52 127t127 53q76 0 128 -52t52 -128q0 -74 -53 -126t-127 -52q-75 0 -127 51.5t-52 126.5zM100 788q0 75 52 127t127 52q76 0 128 -51.5t52 -127.5q0 -74 -53 -127t-127 -53q-75 0 -127 53t-52 127z"/>
<glyph glyph-name="semicolon" horiz-adv-x="557" unicode=";" d="M199 8q-46 14 -72.5 55t-26.5 97q0 74 52 127t127 53q87 0 138.5 -58.5t51.5 -158.5q0 -158 -106 -277.5t-273 -146.5v59q55 60 82 118t27 118v14zM100 788q0 75 52 127t127 52q76 0 128 -51.5t52 -127.5q0 -74 -53 -127t-127 -53q-75 0 -127 53t-52 127z"/>
<glyph glyph-name="less" horiz-adv-x="1706" unicode="&lt;" d="M1442 1194v-219l-893 -365l893 -364v-219l-1178 485v199z"/>
<glyph glyph-name="equal" horiz-adv-x="1706" unicode="=" d="M254 926h1198v-199h-1198v199zM254 496h1198v-199h-1198v199z"/>
<glyph glyph-name="greater" horiz-adv-x="1706" unicode="&gt;" d="M264 1194l1178 -483v-199l-1178 -485v219l895 364l-895 365v219z"/>
<glyph glyph-name="question" horiz-adv-x="815" unicode="?" d="M408 451l-97 -5q-37 33 -55 82.5t-18 116.5q0 63 12.5 116t38.5 101q15 29 47 80q65 105 65 158q0 50 -31 81t-81 31q-36 0 -83 -16.5t-114 -54.5l45 239q66 24 121.5 35.5t103.5 11.5q168 0 260.5 -74.5t92.5 -209.5q0 -87 -37 -170t-136 -208q-3 -4 -10 -12 q-124 -153 -124 -302zM176 160q0 74 52 127t126 53q76 0 128.5 -52t52.5 -128q0 -74 -53 -126t-128 -52q-74 0 -126 51.5t-52 126.5z"/>
<glyph glyph-name="at" horiz-adv-x="2048" unicode="@" d="M1217 700q-13 81 -57.5 123.5t-117.5 42.5q-114 0 -198 -124t-84 -298q0 -92 40.5 -140t117.5 -48q83 0 151.5 63t93.5 164zM1167 272q-55 -84 -127 -123.5t-170 -39.5q-158 0 -240.5 86t-82.5 254q0 239 139.5 401t343.5 162q80 0 139 -33t97 -98l53 98h178l-147 -598 q-3 -11 -5 -22.5t-2 -18.5q0 -35 24 -52.5t71 -17.5q39 0 81.5 20t79.5 56q86 80 130.5 187t44.5 235q0 240 -185.5 394.5t-478.5 154.5q-141 0 -262.5 -34t-220.5 -101q-170 -114 -261.5 -285t-91.5 -375q0 -307 207 -490.5t553 -183.5q162 0 316.5 49t287.5 142l82 -117 q-153 -115 -324.5 -173t-357.5 -58q-192 0 -353 48.5t-286 143.5q-155 121 -232 279t-77 358q0 167 52.5 318.5t154.5 275.5q148 181 356 274t463 93q169 0 317.5 -45.5t258.5 -128.5q135 -105 201.5 -239.5t66.5 -303.5q0 -165 -65.5 -304.5t-188.5 -238.5 q-70 -56 -152.5 -85.5t-171.5 -29.5q-106 0 -159.5 42t-55.5 124z"/>
<glyph glyph-name="A" horiz-adv-x="1477" unicode="A" d="M-41 0l610 1399h404l545 -1399h-371l-100 272h-603l-112 -272h-373zM545 512h413l-196 532z"/>
<glyph glyph-name="B" horiz-adv-x="1384" unicode="B" d="M137 0v1399h516q276 0 416.5 -90.5t140.5 -268.5q0 -93 -47.5 -163t-138.5 -111q147 -46 219 -136.5t72 -228.5q0 -201 -138 -301t-415 -100h-625zM670 846q95 0 141.5 36t46.5 109q0 81 -47 120.5t-141 39.5h-181v-305h181zM489 256h203q136 0 194 38t58 126 q0 90 -61.5 133t-192.5 43h-201v-340z"/>
<glyph glyph-name="C" horiz-adv-x="1432" unicode="C" d="M1362 117q-126 -72 -258 -107t-277 -35q-164 0 -301.5 50t-240.5 147q-106 101 -161.5 236t-55.5 290q0 326 217.5 525.5t574.5 199.5q128 0 249.5 -28t240.5 -86v-328q-116 75 -233 112t-234 37q-212 0 -333.5 -115t-121.5 -317q0 -196 116 -313t312 -117 q126 0 253 44.5t253 131.5v-327z"/>
<glyph glyph-name="D" horiz-adv-x="1581" unicode="D" d="M137 0v1399h525q225 0 349 -34t228 -112q134 -101 203 -241.5t69 -311.5q0 -187 -84 -339.5t-243 -254.5q-90 -57 -199 -81.5t-323 -24.5h-525zM487 1116v-833h261q178 0 290.5 116.5t112.5 300.5t-112.5 300t-290.5 116h-261z"/>
<glyph glyph-name="E" horiz-adv-x="1176" unicode="E" d="M137 0v1399h936v-258h-586v-285h560v-260h-560v-334h603v-262h-953z"/>
<glyph glyph-name="F" horiz-adv-x="1118" unicode="F" d="M137 0v1399h905v-258h-555v-303h521v-263h-521v-575h-350z"/>
<glyph glyph-name="G" horiz-adv-x="1520" unicode="G" d="M1413 164q-128 -96 -271.5 -142.5t-314.5 -46.5q-165 0 -303 50.5t-239 146.5q-106 101 -161.5 236t-55.5 290q0 327 217.5 526t576.5 199q131 0 259 -31t261 -96v-307q-139 71 -265 106t-236 35q-212 0 -332.5 -115t-120.5 -317q0 -197 115 -313.5t309 -116.5 q52 0 103 11t102 32v176h-193v263h549v-586z"/>
<glyph glyph-name="H" horiz-adv-x="1597" unicode="H" d="M137 0v1399h350v-561h623v561h350v-1399h-350v567h-623v-567h-350z"/>
<glyph glyph-name="I" horiz-adv-x="653" unicode="I" d="M147 0v1399h361v-1399h-361z"/>
<glyph glyph-name="J" horiz-adv-x="659" unicode="J" d="M-55 -131q129 4 173 54t44 220v1256h350v-1268q0 -294 -99.5 -412.5t-343.5 -125.5z"/>
<glyph glyph-name="K" horiz-adv-x="1425" unicode="K" d="M147 0v1399h351v-623l475 623h393l-496 -647l619 -752h-455l-536 657v-657h-351z"/>
<glyph glyph-name="L" horiz-adv-x="1110" unicode="L" d="M137 0v1399h350v-1129h603v-270h-953z"/>
<glyph glyph-name="M" horiz-adv-x="1792" unicode="M" d="M137 0v1399h309l449 -563l451 563h309v-1399h-344v866l-416 -512l-412 512v-866h-346z"/>
<glyph glyph-name="N" horiz-adv-x="1677" unicode="N" d="M483 879v-879h-346v1399h307l750 -834v834h346v-1399h-274z"/>
<glyph glyph-name="O" horiz-adv-x="1657" unicode="O" d="M68 698q0 156 55 288.5t164 236.5q106 100 240.5 149t299.5 49q167 0 302 -49.5t241 -148.5q108 -104 163.5 -236.5t55.5 -288.5q0 -155 -55.5 -287.5t-163.5 -234.5q-107 -100 -242.5 -150.5t-300.5 -50.5q-164 0 -298.5 50t-241.5 151q-108 102 -163.5 234.5 t-55.5 287.5zM428 698q0 -187 112.5 -307.5t286.5 -120.5q175 0 287.5 120.5t112.5 307.5q0 188 -112.5 309t-287.5 121q-174 0 -286.5 -121t-112.5 -309z"/>
<glyph glyph-name="P" horiz-adv-x="1270" unicode="P" d="M137 0v1399h516q284 0 420.5 -103t136.5 -315q0 -218 -146 -326t-439 -108h-136v-547h-352zM655 819q99 0 147 39.5t48 120.5q0 77 -50 118.5t-143 41.5h-168v-320h166z"/>
<glyph glyph-name="Q" horiz-adv-x="1657" unicode="Q" d="M635 0q-272 70 -419.5 252.5t-147.5 445.5q0 156 55 288.5t164 236.5q106 100 240.5 149t299.5 49q167 0 302 -49.5t241 -148.5q106 -100 162.5 -231.5t56.5 -276.5q0 -255 -124.5 -432.5t-362.5 -264.5q84 -48 174 -74t170 -26q33 0 65 6.5t63 19.5l28 -36l-252 -232 h-19q-179 0 -362 85t-334 239zM428 698q0 -187 112.5 -307.5t286.5 -120.5q175 0 287.5 120.5t112.5 307.5q0 188 -112.5 309t-287.5 121q-174 0 -286.5 -121t-112.5 -309z"/>
<glyph glyph-name="R" horiz-adv-x="1337" unicode="R" d="M145 0v1399h517q285 0 421 -99t136 -307q0 -116 -60 -198.5t-184 -139.5q52 -19 93.5 -63.5t72.5 -112.5l223 -479h-395l-178 403q-43 96 -98 132t-156 36q-8 0 -21 -1t-20 -1v-569h-351zM664 825q97 0 144.5 40.5t47.5 123.5q0 79 -49.5 120.5t-142.5 41.5h-168v-326 h168z"/>
<glyph glyph-name="S" horiz-adv-x="1223" unicode="S" d="M115 111v311q158 -98 266.5 -137t210.5 -39q103 0 156 31.5t53 93.5q0 50 -33 80.5t-154 72.5q-299 105 -411.5 214.5t-112.5 279.5q0 179 146.5 291t381.5 112q119 0 239 -29t237 -85v-287q-141 71 -253 105t-204 34q-100 0 -152.5 -29t-52.5 -83q0 -44 47 -82.5 t142 -73.5q20 -8 61 -23q200 -74 287 -127q91 -56 137.5 -144t46.5 -206q0 -194 -146.5 -305t-406.5 -111q-130 0 -251.5 34t-233.5 102z"/>
<glyph glyph-name="T" horiz-adv-x="1323" unicode="T" d="M477 0v1139h-463v260h1295v-260h-463v-1139h-369z"/>
<glyph glyph-name="U" horiz-adv-x="1579" unicode="U" d="M1450 1399v-801q0 -294 -174.5 -458.5t-487.5 -164.5q-312 0 -486.5 164.5t-174.5 458.5v801h352v-787q0 -167 80 -255.5t232 -88.5q151 0 230 88t79 256v787h350z"/>
<glyph glyph-name="V" horiz-adv-x="1389" unicode="V" d="M596 -12l-635 1411h375l346 -813l369 813h379l-682 -1411h-152z"/>
<glyph glyph-name="W" horiz-adv-x="2005" unicode="W" d="M543 -12l-568 1411h365l272 -762l275 762h233l275 -762l270 762h367l-568 -1411h-145l-315 874l-318 -874h-143z"/>
<glyph glyph-name="X" horiz-adv-x="1614" unicode="X" d="M-10 0l590 725l-555 674h440l334 -410l336 410h438l-559 -670l610 -729h-450l-375 457l-373 -457h-436z"/>
<glyph glyph-name="Y" horiz-adv-x="1372" unicode="Y" d="M508 0v633l-551 766h420l307 -453l315 453h416l-557 -764v-635h-350z"/>
<glyph glyph-name="Z" horiz-adv-x="1403" unicode="Z" d="M6 0l770 1139h-706v260h1302l-764 -1129h760v-270h-1362z"/>
<glyph glyph-name="bracketleft" horiz-adv-x="762" unicode="[" d="M119 -440v1839h631v-228h-342v-1388h342v-223h-631z"/>
<glyph glyph-name="backslash" horiz-adv-x="584" unicode="\" d="M135 1421l518 -1611h-155l-523 1611h160z"/>
<glyph glyph-name="bracketright" horiz-adv-x="762" unicode="]" d="M643 -440h-631v223h340v1388h-340v228h631v-1839z"/>
<glyph glyph-name="asciicircum" horiz-adv-x="2048" unicode="^" d="M897 1460h252l481 -561h-235l-371 371l-373 -371h-235z"/>
<glyph glyph-name="underscore" horiz-adv-x="1024" unicode="_" d="M0 -279h1024v-204h-1024v204z"/>
<glyph glyph-name="grave" horiz-adv-x="1024" unicode="`" d="M659 1079h-131l-295 346h222z"/>
<glyph glyph-name="a" horiz-adv-x="1057" unicode="a" d="M621 88q-67 -54 -139.5 -80t-155.5 -26q-137 0 -207 66.5t-70 197.5q0 114 103.5 187.5t453.5 174.5q1 5 1.5 11t0.5 16q0 68 -45.5 100.5t-140.5 32.5q-80 0 -164 -39t-164 -113l4 236q86 58 189.5 86.5t232.5 28.5q205 0 297 -79t92 -253v-377q0 -33 9 -46t30 -13 q19 0 39.5 5t54.5 19v-166q-81 -39 -143.5 -57t-118.5 -18q-71 0 -111.5 26.5t-47.5 79.5zM606 227v232q-153 -54 -204.5 -94.5t-51.5 -96.5q0 -46 28 -73t77 -27q33 0 71 15t80 44z"/>
<glyph glyph-name="b" horiz-adv-x="1176" unicode="b" d="M109 55v1344h297v-520q56 46 122 68t146 22q206 0 326 -133.5t120 -362.5q0 -231 -150 -361t-417 -130q-99 0 -209 18t-235 55zM406 272q38 -31 78.5 -46t84.5 -15q109 0 172.5 70.5t63.5 191.5q0 122 -63 192t-173 70q-42 0 -83 -16t-80 -47v-400z"/>
<glyph glyph-name="c" horiz-adv-x="969" unicode="c" d="M907 43q-67 -31 -141.5 -46t-161.5 -15q-255 0 -404 132.5t-149 358.5q0 224 147.5 360t393.5 136q78 0 152 -15.5t147 -46.5v-233q-76 31 -138.5 46t-115.5 15q-128 0 -200 -69.5t-72 -192.5q0 -125 73.5 -193.5t210.5 -68.5q59 0 122 15.5t136 47.5v-231z"/>
<glyph glyph-name="d" horiz-adv-x="1171" unicode="d" d="M776 78q-59 -50 -126 -74t-148 -24q-200 0 -323.5 136t-123.5 357t124 358.5t323 137.5q78 0 142.5 -22.5t119.5 -67.5v520h299v-1399h-287v78zM764 270v406q-39 29 -80 44t-84 15q-109 0 -172 -70.5t-63 -191.5q0 -118 63 -190t166 -72q44 0 85.5 14.5t84.5 44.5z"/>
<glyph glyph-name="e" horiz-adv-x="1090" unicode="e" d="M367 567l368 1q-8 92 -55.5 144t-122.5 52q-77 0 -127.5 -52t-62.5 -145zM1014 104q-97 -63 -204.5 -93.5t-229.5 -30.5q-245 0 -384 134t-139 371q0 219 136 350.5t362 131.5q223 0 352 -142.5t129 -392.5v-10h-671v-4q0 -113 77 -178.5t211 -65.5q90 0 180 32t181 95 v-197z"/>
<glyph glyph-name="f" horiz-adv-x="588" unicode="f" d="M133 0v745h-135v203h135v105q0 183 98 272.5t297 89.5q32 0 69.5 -4t84.5 -12v-228q-33 7 -59.5 10t-49.5 3q-76 0 -108.5 -42.5t-32.5 -148.5v-45h125v-203h-125v-745h-299z"/>
<glyph glyph-name="g" horiz-adv-x="1075" unicode="g" d="M319 311q-126 37 -187.5 113t-61.5 194q0 161 127 245.5t368 84.5h482v-198h-134q23 -36 34 -75.5t11 -86.5q0 -128 -75.5 -204.5t-227.5 -102.5q-36 -7 -95 -12q-118 -11 -118 -64q0 -51 162 -67q61 -6 99 -11q152 -20 231.5 -91t79.5 -188q0 -154 -128 -233.5 t-378 -79.5q-230 0 -360 74t-130 205q0 83 64.5 143t187.5 92q-55 17 -82.5 46t-27.5 71q0 55 39.5 91t119.5 54zM518 766q-77 0 -123.5 -44.5t-46.5 -117.5t46.5 -117.5t123.5 -44.5t123.5 44.5t46.5 117.5t-46.5 117.5t-123.5 44.5zM297 -170q0 -58 55.5 -87.5 t165.5 -29.5t167.5 29.5t57.5 85.5q0 52 -57.5 81.5t-161.5 29.5q-109 0 -168 -28.5t-59 -80.5z"/>
<glyph glyph-name="h" horiz-adv-x="1157" unicode="h" d="M111 0v1399h299v-570q70 73 146 105.5t175 32.5q156 0 239 -94.5t83 -272.5v-600h-299v559q0 101 -32.5 148t-100.5 47q-63 0 -116 -38t-95 -112v-604h-299z"/>
<glyph glyph-name="i" horiz-adv-x="516" unicode="i" d="M98 1255q0 67 46.5 113.5t113.5 46.5q68 0 114 -46t46 -114q0 -67 -46 -113t-114 -46q-67 0 -113.5 46.5t-46.5 112.5zM109 0v948h299v-948h-299z"/>
<glyph glyph-name="j" horiz-adv-x="526" unicode="j" d="M109 1255q0 68 46 114t113 46q68 0 114 -46t46 -114q0 -67 -46.5 -113t-113.5 -46q-66 0 -112.5 46t-46.5 113zM-27 -207q73 16 109.5 65.5t36.5 133.5v956h299v-948q0 -224 -83.5 -334t-268.5 -131z"/>
<glyph glyph-name="k" horiz-adv-x="1128" unicode="k" d="M109 0v1399h297v-1399h-297zM780 0l-370 492l364 456h359l-367 -456l371 -492h-357z"/>
<glyph glyph-name="l" horiz-adv-x="516" unicode="l" d="M109 0v1399h299v-1399h-299z"/>
<glyph glyph-name="m" horiz-adv-x="1792" unicode="m" d="M109 0v948h297v-119q69 71 146.5 104.5t172.5 33.5q106 0 175 -43t106 -131q91 96 172.5 135t187.5 39q156 0 239 -94.5t83 -272.5v-600h-299v559q0 105 -31.5 150t-102.5 45q-62 0 -115 -37.5t-98 -112.5v-604h-290v559q0 104 -31.5 149.5t-102.5 45.5 q-61 0 -114.5 -37.5t-97.5 -112.5v-604h-297z"/>
<glyph glyph-name="n" horiz-adv-x="1155" unicode="n" d="M109 0v948h297v-119q70 72 147 105t176 33q156 0 239 -94.5t83 -272.5v-600h-299v559q0 101 -32.5 148t-101.5 47q-62 0 -115.5 -38t-96.5 -112v-604h-297z"/>
<glyph glyph-name="o" horiz-adv-x="1143" unicode="o" d="M51 473q0 219 144.5 356.5t375.5 137.5q232 0 377.5 -138t145.5 -356q0 -217 -145 -354t-378 -137q-231 0 -375.5 136.5t-144.5 354.5zM358 473q0 -121 58.5 -193.5t154.5 -72.5q97 0 155 72.5t58 193.5t-58.5 194.5t-154.5 73.5q-95 0 -154 -73.5t-59 -194.5z"/>
<glyph glyph-name="p" horiz-adv-x="1171" unicode="p" d="M109 -465v1413h286v-78q60 51 126 75t147 24q199 0 323.5 -137.5t124.5 -358.5q0 -220 -124.5 -356.5t-323.5 -136.5q-78 0 -143 22t-119 68v-535h-297zM406 680v-406q38 -29 79.5 -44t83.5 -15q110 0 173 69.5t63 190.5q0 119 -62.5 191.5t-164.5 72.5q-44 0 -87 -14.5 t-85 -44.5z"/>
<glyph glyph-name="q" horiz-adv-x="1171" unicode="q" d="M764 70q-55 -46 -119.5 -68t-142.5 -22q-199 0 -323 136.5t-124 356.5q0 222 124 359t323 137q81 0 148 -24t126 -75v78h287v-1413h-299v535zM764 680q-43 30 -85 44.5t-85 14.5q-103 0 -166 -72.5t-63 -191.5q0 -121 63 -190.5t172 -69.5q43 0 84 15t80 44v406z"/>
<glyph glyph-name="r" horiz-adv-x="877" unicode="r" d="M109 0v948h299v-254q76 144 146 206.5t153 62.5q41 0 86.5 -17t101.5 -53l-80 -272q-45 35 -83 51t-75 16q-85 0 -152.5 -75t-96.5 -205v-408h-299z"/>
<glyph glyph-name="s" horiz-adv-x="844" unicode="s" d="M70 51v211q90 -41 166.5 -63.5t128.5 -22.5q71 0 107 18t36 54q0 30 -27 53.5t-123 63.5q-10 4 -32 13q-273 113 -273 290q0 135 100.5 217t266.5 82q89 0 168.5 -19t154.5 -57v-209q-94 50 -167.5 73t-135.5 23q-54 0 -83 -19t-29 -54q0 -46 162 -113q66 -26 104 -43 q104 -45 151.5 -108t47.5 -156q0 -147 -101.5 -226t-288.5 -79q-93 0 -176.5 17.5t-156.5 53.5z"/>
<glyph glyph-name="t" horiz-adv-x="813" unicode="t" d="M150 741h-136v64l387 420h45v-277h324v-207h-324v-350q0 -109 31 -145.5t113 -36.5q40 0 84.5 11.5t95.5 35.5l2 -223q-72 -27 -144 -40t-143 -13q-181 0 -258 93t-77 320v348z"/>
<glyph glyph-name="u" horiz-adv-x="1155" unicode="u" d="M750 119q-71 -72 -147 -104.5t-175 -32.5q-156 0 -240 94.5t-84 271.5v600h299v-559q0 -101 32.5 -147.5t101.5 -46.5q62 0 116.5 37.5t96.5 111.5v604h299v-948h-299v119z"/>
<glyph glyph-name="v" horiz-adv-x="979" unicode="v" d="M406 -18l-439 966h316l209 -514l196 514h311l-411 -966h-182z"/>
<glyph glyph-name="w" horiz-adv-x="1554" unicode="w" d="M387 -18l-432 966h315l209 -514l213 514h154l221 -514l203 514h305l-432 -966h-146l-231 528l-231 -528h-148z"/>
<glyph glyph-name="x" horiz-adv-x="1100" unicode="x" d="M-25 0l379 481l-370 467h360l193 -264l196 264h361l-367 -465l391 -483h-366l-207 283l-209 -283h-361z"/>
<glyph glyph-name="y" horiz-adv-x="979" unicode="y" d="M360 -465h-313l281 617l-361 796h320l192 -463l205 463h315z"/>
<glyph glyph-name="z" horiz-adv-x="1020" unicode="z" d="M25 0v25l475 710h-437v213h908v-28l-475 -707h475v-213h-946z"/>
<glyph glyph-name="braceleft" horiz-adv-x="1024" unicode="{" d="M883 1477v-209q-9 0 -25 1t-22 1q-101 0 -136.5 -38.5t-35.5 -162.5v-240q0 -148 -45 -210t-162 -89q117 -27 162 -88t45 -209v-241q0 -123 35 -161t137 -38q6 0 22 1t25 1v-209q-14 0 -39 -1t-37 -1q-100 0 -167 12t-114 37q-57 34 -80.5 91.5t-23.5 199.5v252 q0 137 -51 194.5t-172 57.5q-6 0 -20 -1t-21 -1v209q7 0 21 -1t20 -1q120 0 171.5 58t51.5 196v250q0 143 23.5 201t80.5 92q47 25 114 37t167 12q12 0 37 -1t39 -1z"/>
<glyph glyph-name="bar" horiz-adv-x="1024" unicode="|" d="M410 1565h206v-2048h-206v2048z"/>
<glyph glyph-name="braceright" horiz-adv-x="1024" unicode="}" d="M143 1477h68q110 0 177 -12t112 -38q57 -32 80.5 -91.5t23.5 -198.5v-252q0 -137 51 -194.5t172 -57.5q6 0 20 1t21 1v-209h-37q-125 0 -176 -56t-51 -194v-252q0 -143 -23.5 -201t-80.5 -90q-47 -25 -114 -37t-167 -12q-12 0 -37 1t-39 1v209q9 0 25 -1t22 -1 q101 0 136.5 38.5t35.5 160.5v239q0 150 45 211.5t162 87.5q-117 27 -162 89t-45 210v242q0 122 -35.5 160.5t-136.5 38.5q-6 0 -22 -1t-25 -1v209z"/>
<glyph glyph-name="asciitilde" horiz-adv-x="1706" unicode="~" d="M1530 803v-221q-104 -71 -196.5 -104.5t-182.5 -33.5q-46 0 -92 8t-92 23q-24 8 -71 25q-219 75 -333 75q-85 0 -177.5 -37.5t-207.5 -119.5v221q107 72 204 107.5t183 35.5q117 0 291 -58l4 -1q18 -6 55 -19q155 -55 240 -55t175 37t200 117z"/>
<glyph glyph-name="nonbreakingspace" unicode=" "/>
<glyph glyph-name="exclamdown" horiz-adv-x="664" unicode="¡" d="M332 -20q-84 0 -126 53t-42 160q0 116 15.5 246.5t47.5 279.5q3 11 7 32q46 218 98 218q47 0 77 -138q8 -36 13 -57q38 -169 57 -313t19 -268q0 -108 -41.5 -160.5t-124.5 -52.5zM510 1243q0 -74 -52 -127t-126 -53q-76 0 -128 52t-52 128q0 74 52.5 126t127.5 52 q74 0 126 -51.5t52 -126.5z"/>
<glyph glyph-name="cent" d="M963 66q-72 -33 -148 -49.5t-156 -16.5q-22 0 -46.5 1.5t-48.5 4.5l-101 -274h-146l109 295q-150 61 -233.5 184.5t-83.5 284.5q0 222 145.5 357.5t386.5 135.5q29 0 61 -2.5t70 -7.5l98 272h146l-111 -307l41 -14v-234q-33 17 -62 27t-57 14l-180 -499q27 -4 41 -5.5 t23 -1.5q50 0 114.5 17t137.5 49v-231zM524 281l174 477q-5 0 -14 1t-14 1q-110 0 -180 -74t-70 -190q0 -70 26.5 -125t77.5 -90z" unicode="¢"/>
<glyph glyph-name="sterling" d="M127 -23l127 598h-102v242h159q69 298 205.5 453t329.5 155q29 0 43.5 -1t28.5 -3l124 -266q-31 8 -61.5 12t-60.5 4q-119 0 -190 -81t-118 -273h127v-242h-182l-59 -271q8 0 18.5 0.5t30.5 0.5q59 0 172 -19.5t168 -19.5q29 0 67 7t88 22v-270q-41 -27 -85 -39.5 t-95 -12.5q-60 0 -191 30t-202 30q-60 0 -140.5 -13t-201.5 -43z" unicode="£"/>
<glyph glyph-name="currency" d="M1057 98q-79 -63 -169 -93t-206 -30q-194 0 -331.5 139.5t-182.5 379.5h-166l45 137h104q-1 12 -1 26v41q0 33 0.5 49.5t0.5 28.5h-149l43 137h125q44 235 189 371.5t352 136.5q99 0 183 -24t153 -72v-297q-90 76 -152.5 103.5t-134.5 27.5q-104 0 -168.5 -61t-91.5 -185 h501l-43 -137h-474q-2 -13 -2.5 -29t-0.5 -49q0 -27 0.5 -41t2.5 -26h427l-45 -137h-368q24 -129 84.5 -191.5t158.5 -62.5q90 0 166 38t150 119v-299z" unicode="¤"/>
<glyph glyph-name="yen" horiz-adv-x="1280" unicode="¥" d="M487 0v575h-434v138h379l-100 145h-279v137h183l-285 404h360l332 -488l340 488h354l-286 -404h176v-137h-273l-102 -145h375v-138h-432v-575h-308z"/>
<glyph glyph-name="brokenbar" horiz-adv-x="1024" unicode="¦" d="M410 1432h206v-758h-206v758zM410 408h206v-758h-206v758z"/>
<glyph glyph-name="section" d="M186 106q98 -56 186 -87t150 -31q59 0 93 26t34 70q0 71 -186 155l-23 11q-233 107 -297.5 186t-64.5 203q0 91 47 158t141 110q-43 33 -65.5 85t-22.5 122q0 138 104.5 222.5t274.5 84.5q92 0 179 -19t171 -59v-221q-95 50 -175.5 76.5t-137.5 26.5q-59 0 -94 -26.5 t-35 -70.5q0 -69 176 -148q23 -10 34 -15q223 -99 292 -181.5t69 -214.5q0 -89 -46.5 -155t-139.5 -107q45 -34 66.5 -83.5t21.5 -117.5q0 -148 -104 -231.5t-289 -83.5q-94 0 -184 23.5t-175 70.5v221zM477 512l205 -96q59 30 84 60.5t25 72.5q0 45 -29 76.5t-105 66.5 l-223 105q-59 -27 -83.5 -58.5t-24.5 -76.5q0 -44 29.5 -75.5t121.5 -74.5z" unicode="§"/>
<glyph glyph-name="dieresis" horiz-adv-x="1024" unicode="¨" d="M209 1241q0 48 36 84.5t85 36.5t84 -35.5t35 -85.5q0 -53 -33.5 -87t-85.5 -34t-86.5 34.5t-34.5 86.5zM573 1241q0 48 36.5 84.5t84.5 36.5q49 0 84 -35.5t35 -85.5q0 -53 -33 -87t-86 -34q-51 0 -86 34.5t-35 86.5z"/>
<glyph glyph-name="copyright" horiz-adv-x="1706" unicode="©" d="M852 1479q152 0 287.5 -56t242.5 -163q105 -105 160 -240.5t55 -286.5q0 -152 -54.5 -284t-160.5 -236q-111 -108 -248 -165.5t-282 -57.5q-147 0 -280.5 56.5t-241.5 164.5q-107 106 -163 240.5t-56 281.5q0 149 56 284.5t163 244.5q105 106 238 161.5t284 55.5z M854 1356q-128 0 -239.5 -46t-198.5 -134q-89 -90 -136 -203.5t-47 -237.5q0 -125 47 -237t136 -201q88 -88 201 -135t237 -47t237.5 47t204.5 137q88 86 133.5 197t45.5 239q0 126 -46.5 238.5t-134.5 200.5q-89 89 -201 135.5t-239 46.5zM1212 897h-188q-8 70 -53 108.5 t-119 38.5q-91 0 -143 -81.5t-52 -227.5q0 -147 52 -224t151 -77q73 0 117 42t53 119l193 1q-8 -139 -109 -223t-260 -84q-186 0 -293.5 118t-107.5 322q0 206 109.5 328.5t293.5 122.5q152 0 250.5 -78t105.5 -205z"/>
<glyph glyph-name="ordfeminine" horiz-adv-x="793" unicode="ª" d="M465 797q-50 -38 -104.5 -56t-116.5 -18q-102 0 -154.5 47t-52.5 137q0 80 78 131.5t339 122.5q2 4 2.5 7.5t0.5 11.5q0 48 -34.5 71t-105.5 23q-60 0 -123 -27.5t-122 -79.5l2 164q63 41 140 60.5t177 19.5q153 0 222 -55t69 -176v-265q0 -21 6.5 -30.5t22.5 -10.5 q16 1 32 4.5t39 12.5v-115q-61 -28 -108 -40.5t-88 -12.5q-54 0 -84.5 18.5t-36.5 55.5zM455 895v162q-114 -38 -153.5 -66t-39.5 -67q0 -33 22 -52.5t58 -19.5q25 0 54 11t59 32z"/>
<glyph glyph-name="guillemotleft" horiz-adv-x="1059" unicode="«" d="M739 150l-237 325l237 324h242l-242 -324l242 -325h-242zM557 150h-238l-243 325l243 324h238l-238 -324z"/>
<glyph glyph-name="logicalnot" horiz-adv-x="1706" unicode="¬" d="M254 864h1198v-502h-199v306h-999v196z"/>
<glyph glyph-name="sfthyphen" horiz-adv-x="702" unicode="­" d="M80 342v270h541v-270h-541z"/>
<glyph glyph-name="registered" horiz-adv-x="1706" unicode="®" d="M852 1479q154 0 290.5 -57.5t243.5 -166.5q103 -104 157 -238t54 -284q0 -152 -56 -287.5t-163 -238.5q-107 -105 -243.5 -161t-282.5 -56q-149 0 -285 58t-243 167q-104 105 -158.5 238.5t-54.5 279.5q0 102 27 198.5t81 188.5q101 170 267 264.5t366 94.5zM854 1356 q-127 0 -236 -44.5t-196 -131.5q-91 -91 -140 -206.5t-49 -238.5q0 -124 46 -235.5t133 -198.5q89 -91 203 -139.5t237 -48.5q120 0 233.5 47t206.5 135q87 84 135 196t48 232q0 133 -44.5 245t-132.5 201q-90 93 -202.5 140t-241.5 47zM545 1161h323q176 0 264.5 -59.5 t88.5 -177.5q0 -82 -48 -140t-133 -79l185 -369h-224l-157 338h-99v-338h-200v825zM745 1034v-239h99q88 0 129 28t41 88q0 63 -44 93t-136 30h-89z"/>
<glyph glyph-name="macron" horiz-adv-x="1024" unicode="¯" d="M236 1167v148h552v-148h-552z"/>
<glyph glyph-name="degree" horiz-adv-x="674" unicode="°" d="M338 1464q126 0 214.5 -89.5t88.5 -215.5q0 -125 -89 -214t-216 -89q-126 0 -213.5 88t-87.5 215t88.5 216t214.5 89zM338 1335q-73 0 -124.5 -51t-51.5 -123q0 -74 51 -125t125 -51q72 0 123 52t51 124t-51 123t-123 51z"/>
<glyph glyph-name="plusminus" horiz-adv-x="1706" unicode="±" d="M752 1223h202v-326h498v-199h-498v-325h-202v325h-498v199h498v326zM254 197h1198v-199h-1198v199z"/>
<glyph glyph-name="twosuperior" horiz-adv-x="737" unicode="²" d="M41 559v27q240 256 311.5 364t71.5 187q0 61 -36.5 92t-108.5 31q-45 0 -96 -22.5t-126 -74.5v166q69 42 141 63t148 21q138 0 218.5 -65t80.5 -177q0 -85 -60.5 -183t-215.5 -255h313v-174h-641z"/>
<glyph glyph-name="threesuperior" horiz-adv-x="737" unicode="³" d="M61 598v162q59 -35 108.5 -50.5t98.5 -15.5q78 0 118 28.5t40 82.5q0 52 -40.5 82.5t-113.5 32.5l1 151q66 2 104.5 30.5t38.5 76.5q0 42 -37.5 67t-102.5 25q-46 0 -89.5 -11t-92.5 -34v143q45 22 102 32.5t130 10.5q135 0 215 -57.5t80 -153.5q0 -63 -33.5 -109.5 t-104.5 -80.5q82 -30 122 -84t40 -135q0 -114 -88.5 -180t-241.5 -66q-77 0 -141.5 13.5t-112.5 39.5z"/>
<glyph glyph-name="acute" horiz-adv-x="1024" unicode="´" d="M365 1079l204 348h222l-295 -348h-131z"/>
<glyph glyph-name="mu" horiz-adv-x="1249" unicode="µ" d="M205 1092h289l-76 -435q-15 -80 -23 -151.5t-8 -116.5q0 -93 42 -138.5t128 -45.5q100 0 155.5 82t92.5 291l90 514h289l-193 -1092h-268l18 117q-42 -78 -93.5 -114t-121.5 -36q-67 0 -119 29.5t-94 91.5l-90 -526h-286z"/>
<glyph glyph-name="paragraph" horiz-adv-x="1024" unicode="¶" d="M983 1479v-111h-113v-1368h-151v1368h-158v-1368h-153v784q-167 6 -267 101t-100 245q0 158 107 253.5t284 95.5h551z"/>
<glyph glyph-name="periodcentered" horiz-adv-x="557" unicode="·" d="M100 702q0 75 52 128t127 53q76 0 128 -52.5t52 -128.5q0 -74 -53 -126t-127 -52q-75 0 -127 52t-52 126z"/>
<glyph glyph-name="cedilla" horiz-adv-x="1024" unicode="¸" d="M242 -434v119q82 -22 146.5 -32.5t109.5 -10.5q53 0 80.5 19t27.5 56q0 42 -33.5 61t-107.5 19q-7 0 -21.5 -1t-21.5 -1v205h90v-94h14q119 0 178.5 -48t59.5 -145q0 -90 -65.5 -140t-184.5 -50q-56 0 -125.5 11t-146.5 32z"/>
<glyph glyph-name="onesuperior" horiz-adv-x="737" unicode="¹" d="M262 559v840h211v-840h-211z"/>
<glyph glyph-name="ordmasculine" horiz-adv-x="858" unicode="º" d="M39 1067q0 152 108 248t281 96q175 0 284 -96t109 -248t-109 -248t-284 -96q-174 0 -281.5 95.5t-107.5 248.5zM268 1067q0 -84 44 -135t116 -51q73 0 116.5 50.5t43.5 135.5q0 84 -44 135t-116 51q-71 0 -115.5 -51t-44.5 -135z"/>
<glyph glyph-name="guillemotright" horiz-adv-x="1059" unicode="»" d="M502 150l235 325l-235 324h235l244 -324l-244 -325h-235zM317 150h-241l241 325l-241 324h241l238 -324z"/>
<glyph glyph-name="onequarter" horiz-adv-x="1749" unicode="¼" d="M250 614v783h201v-783h-201zM528 -25h-168l852 1446h172zM1425 0v195h-362v131l422 467h129v-478h84v-120h-84v-195h-189zM1425 315l2 242l-217 -242h215z"/>
<glyph glyph-name="onehalf" horiz-adv-x="1749" unicode="½" d="M250 614v783h201v-783h-201zM528 -25h-168l852 1446h172zM1085 0v25q236 250 300.5 347t64.5 167q0 57 -34.5 85.5t-104.5 28.5q-43 0 -92.5 -20.5t-120.5 -69.5v156q67 39 135.5 58.5t140.5 19.5q133 0 210 -61t77 -165q0 -80 -59.5 -173t-206.5 -236h301v-162h-611z "/>
<glyph glyph-name="threequarters" horiz-adv-x="1749" unicode="¾" d="M59 651v152q54 -32 101.5 -47t95.5 -15q73 0 111.5 26.5t38.5 76.5q0 48 -38 76.5t-108 32.5v138q62 2 98.5 29t36.5 72q0 39 -35.5 62.5t-95.5 23.5q-43 0 -85.5 -10.5t-88.5 -32.5v133q47 22 101.5 32.5t119.5 10.5q129 0 205 -54t76 -145q0 -58 -31.5 -101.5 t-97.5 -76.5q77 -26 115 -77t38 -128q0 -104 -85 -166.5t-230 -62.5q-73 0 -134.5 13t-107.5 38zM528 -25h-168l852 1446h172zM1425 0v195h-362v131l422 467h129v-478h84v-120h-84v-195h-189zM1425 315l2 242l-217 -242h215z"/>
<glyph glyph-name="questiondown" horiz-adv-x="815" unicode="¿" d="M639 1243q0 -74 -52 -127t-126 -53q-76 0 -128 52t-52 128q0 74 52.5 126t127.5 52q74 0 126 -51.5t52 -126.5zM410 952l94 4q37 -32 55.5 -81.5t18.5 -116.5q0 -64 -12.5 -116.5t-39.5 -100.5q-15 -29 -47 -80q-65 -105 -65 -158q0 -50 31.5 -81.5t82.5 -31.5 q36 0 81 16.5t114 55.5l-45 -239q-66 -24 -121.5 -36t-103.5 -12q-168 0 -260.5 75t-92.5 210q0 87 37 170t135 207q5 6 14 17q124 151 124 298z"/>
<glyph glyph-name="Agrave" horiz-adv-x="1477" unicode="À" d="M-41 0l610 1399h404l545 -1399h-371l-100 272h-603l-112 -272h-373zM545 512h413l-196 532zM923 1534h-131l-295 346h222z"/>
<glyph glyph-name="Aacute" horiz-adv-x="1477" unicode="Á" d="M-41 0l610 1399h404l545 -1399h-371l-100 272h-603l-112 -272h-373zM545 512h413l-196 532zM629 1534l204 348h222l-295 -348h-131z"/>
<glyph glyph-name="Acircumflex" horiz-adv-x="1477" unicode="Â" d="M-41 0l610 1399h404l545 -1399h-371l-100 272h-603l-112 -272h-373zM545 512h413l-196 532zM479 1532l188 348h218l188 -348h-131l-166 209l-168 -209h-129z"/>
<glyph glyph-name="Atilde" horiz-adv-x="1477" unicode="Ã" d="M-41 0l610 1399h404l545 -1399h-371l-100 272h-603l-112 -272h-373zM545 512h413l-196 532zM1077 1819q-23 -118 -71.5 -172.5t-127.5 -54.5q-16 0 -33.5 2.5t-35.5 7.5l-85 25q-20 5 -36 7.5t-27 2.5q-33 0 -54 -16.5t-32 -51.5h-100q20 110 67.5 164.5t124.5 54.5 q14 0 33.5 -3t50.5 -11l89 -25q13 -3 25.5 -4.5t25.5 -1.5q31 0 54 20.5t32 55.5h100z"/>
<glyph glyph-name="Adieresis" horiz-adv-x="1477" unicode="Ä" d="M-41 0l610 1399h404l545 -1399h-371l-100 272h-603l-112 -272h-373zM545 512h413l-196 532zM473 1696q0 48 36 84.5t85 36.5t84 -35.5t35 -85.5q0 -53 -33.5 -87t-85.5 -34t-86.5 34.5t-34.5 86.5zM837 1696q0 48 36.5 84.5t84.5 36.5q49 0 84 -35.5t35 -85.5 q0 -53 -33 -87t-86 -34q-51 0 -86 34.5t-35 86.5z"/>
<glyph glyph-name="Aring" horiz-adv-x="1477" unicode="Å" d="M-41 0l610 1399h404l545 -1399h-371l-100 272h-603l-112 -272h-373zM545 512h413l-196 532zM518 1718q0 106 74 180t180 74t180 -74t74 -180q0 -105 -73.5 -178.5t-180.5 -73.5q-106 0 -180 74t-74 178zM657 1718q0 -48 34 -82t81 -34q49 0 84 34t35 82q0 49 -35 84 t-84 35q-47 0 -81 -35t-34 -84z"/>
<glyph glyph-name="AE" horiz-adv-x="1972" unicode="Æ" d="M682 717h248v452zM530 451l-251 -451h-353l781 1397h1165v-256h-586v-285h559v-260h-559v-334h602v-262h-958v451h-400z"/>
<glyph glyph-name="Ccedilla" horiz-adv-x="1432" unicode="Ç" d="M1362 117q-126 -72 -258 -107t-277 -35q-164 0 -301.5 50t-240.5 147q-106 101 -161.5 236t-55.5 290q0 326 217.5 525.5t574.5 199.5q128 0 249.5 -28t240.5 -86v-328q-116 75 -233 112t-234 37q-212 0 -333.5 -115t-121.5 -317q0 -196 116 -313t312 -117 q126 0 253 44.5t253 131.5v-327zM482 -434v119q82 -22 146.5 -32.5t109.5 -10.5q53 0 80.5 19t27.5 56q0 42 -33.5 61t-107.5 19q-7 0 -21.5 -1t-21.5 -1v205h90v-94h14q119 0 178.5 -48t59.5 -145q0 -90 -65.5 -140t-184.5 -50q-56 0 -125.5 11t-146.5 32z"/>
<glyph glyph-name="Egrave" horiz-adv-x="1176" unicode="È" d="M137 0v1399h936v-258h-586v-285h560v-260h-560v-334h603v-262h-953zM757 1534h-131l-295 346h222z"/>
<glyph glyph-name="Eacute" horiz-adv-x="1176" unicode="É" d="M137 0v1399h936v-258h-586v-285h560v-260h-560v-334h603v-262h-953zM463 1534l204 348h222l-295 -348h-131z"/>
<glyph glyph-name="Ecircumflex" horiz-adv-x="1176" unicode="Ê" d="M137 0v1399h936v-258h-586v-285h560v-260h-560v-334h603v-262h-953zM313 1532l188 348h218l188 -348h-131l-166 209l-168 -209h-129z"/>
<glyph glyph-name="Edieresis" horiz-adv-x="1176" unicode="Ë" d="M137 0v1399h936v-258h-586v-285h560v-260h-560v-334h603v-262h-953zM307 1696q0 48 36 84.5t85 36.5t84 -35.5t35 -85.5q0 -53 -33.5 -87t-85.5 -34t-86.5 34.5t-34.5 86.5zM671 1696q0 48 36.5 84.5t84.5 36.5q49 0 84 -35.5t35 -85.5q0 -53 -33 -87t-86 -34 q-51 0 -86 34.5t-35 86.5z"/>
<glyph glyph-name="Igrave" horiz-adv-x="653" unicode="Ì" d="M147 0v1399h361v-1399h-361zM475 1534h-131l-295 346h222z"/>
<glyph glyph-name="Iacute" horiz-adv-x="653" unicode="Í" d="M147 0v1399h361v-1399h-361zM181 1534l204 348h222l-295 -348h-131z"/>
<glyph glyph-name="Icircumflex" horiz-adv-x="653" unicode="Î" d="M147 0v1399h361v-1399h-361zM31 1532l188 348h218l188 -348h-131l-166 209l-168 -209h-129z"/>
<glyph glyph-name="Idieresis" horiz-adv-x="653" unicode="Ï" d="M147 0v1399h361v-1399h-361zM25 1696q0 48 36 84.5t85 36.5t84 -35.5t35 -85.5q0 -53 -33.5 -87t-85.5 -34t-86.5 34.5t-34.5 86.5zM389 1696q0 48 36.5 84.5t84.5 36.5q49 0 84 -35.5t35 -85.5q0 -53 -33 -87t-86 -34q-51 0 -86 34.5t-35 86.5z"/>
<glyph glyph-name="Eth" horiz-adv-x="1597" unicode="Ð" d="M496 600v-317h268q179 0 292 117t113 300q0 184 -113 300t-292 116h-268v-313h286v-203h-286zM154 0v600h-154v203h154v596h524q225 0 349.5 -34t227.5 -112q135 -102 205 -242.5t70 -310.5q0 -186 -85 -339t-245 -255q-90 -57 -198.5 -81.5t-323.5 -24.5h-524z"/>
<glyph glyph-name="Ntilde" horiz-adv-x="1677" unicode="Ñ" d="M483 879v-879h-346v1399h307l750 -834v834h346v-1399h-274zM1141 1819q-23 -118 -71.5 -172.5t-127.5 -54.5q-16 0 -33.5 2.5t-35.5 7.5l-85 25q-20 5 -36 7.5t-27 2.5q-33 0 -54 -16.5t-32 -51.5h-100q20 110 67.5 164.5t124.5 54.5q14 0 33.5 -3t50.5 -11l89 -25 q13 -3 25.5 -4.5t25.5 -1.5q31 0 54 20.5t32 55.5h100z"/>
<glyph glyph-name="Ograve" horiz-adv-x="1657" unicode="Ò" d="M68 698q0 156 55 288.5t164 236.5q106 100 240.5 149t299.5 49q167 0 302 -49.5t241 -148.5q108 -104 163.5 -236.5t55.5 -288.5q0 -155 -55.5 -287.5t-163.5 -234.5q-107 -100 -242.5 -150.5t-300.5 -50.5q-164 0 -298.5 50t-241.5 151q-108 102 -163.5 234.5 t-55.5 287.5zM428 698q0 -187 112.5 -307.5t286.5 -120.5q175 0 287.5 120.5t112.5 307.5q0 188 -112.5 309t-287.5 121q-174 0 -286.5 -121t-112.5 -309zM976 1534h-131l-295 346h222z"/>
<glyph glyph-name="Oacute" horiz-adv-x="1657" unicode="Ó" d="M68 698q0 156 55 288.5t164 236.5q106 100 240.5 149t299.5 49q167 0 302 -49.5t241 -148.5q108 -104 163.5 -236.5t55.5 -288.5q0 -155 -55.5 -287.5t-163.5 -234.5q-107 -100 -242.5 -150.5t-300.5 -50.5q-164 0 -298.5 50t-241.5 151q-108 102 -163.5 234.5 t-55.5 287.5zM428 698q0 -187 112.5 -307.5t286.5 -120.5q175 0 287.5 120.5t112.5 307.5q0 188 -112.5 309t-287.5 121q-174 0 -286.5 -121t-112.5 -309zM682 1534l204 348h222l-295 -348h-131z"/>
<glyph glyph-name="Ocircumflex" horiz-adv-x="1657" unicode="Ô" d="M68 698q0 156 55 288.5t164 236.5q106 100 240.5 149t299.5 49q167 0 302 -49.5t241 -148.5q108 -104 163.5 -236.5t55.5 -288.5q0 -155 -55.5 -287.5t-163.5 -234.5q-107 -100 -242.5 -150.5t-300.5 -50.5q-164 0 -298.5 50t-241.5 151q-108 102 -163.5 234.5 t-55.5 287.5zM428 698q0 -187 112.5 -307.5t286.5 -120.5q175 0 287.5 120.5t112.5 307.5q0 188 -112.5 309t-287.5 121q-174 0 -286.5 -121t-112.5 -309zM532 1532l188 348h218l188 -348h-131l-166 209l-168 -209h-129z"/>
<glyph glyph-name="Otilde" horiz-adv-x="1657" unicode="Õ" d="M68 698q0 156 55 288.5t164 236.5q106 100 240.5 149t299.5 49q167 0 302 -49.5t241 -148.5q108 -104 163.5 -236.5t55.5 -288.5q0 -155 -55.5 -287.5t-163.5 -234.5q-107 -100 -242.5 -150.5t-300.5 -50.5q-164 0 -298.5 50t-241.5 151q-108 102 -163.5 234.5 t-55.5 287.5zM428 698q0 -187 112.5 -307.5t286.5 -120.5q175 0 287.5 120.5t112.5 307.5q0 188 -112.5 309t-287.5 121q-174 0 -286.5 -121t-112.5 -309zM1130 1819q-23 -118 -71.5 -172.5t-127.5 -54.5q-16 0 -33.5 2.5t-35.5 7.5l-85 25q-20 5 -36 7.5t-27 2.5 q-33 0 -54 -16.5t-32 -51.5h-100q20 110 67.5 164.5t124.5 54.5q14 0 33.5 -3t50.5 -11l89 -25q13 -3 25.5 -4.5t25.5 -1.5q31 0 54 20.5t32 55.5h100z"/>
<glyph glyph-name="Odieresis" horiz-adv-x="1657" unicode="Ö" d="M68 698q0 156 55 288.5t164 236.5q106 100 240.5 149t299.5 49q167 0 302 -49.5t241 -148.5q108 -104 163.5 -236.5t55.5 -288.5q0 -155 -55.5 -287.5t-163.5 -234.5q-107 -100 -242.5 -150.5t-300.5 -50.5q-164 0 -298.5 50t-241.5 151q-108 102 -163.5 234.5 t-55.5 287.5zM428 698q0 -187 112.5 -307.5t286.5 -120.5q175 0 287.5 120.5t112.5 307.5q0 188 -112.5 309t-287.5 121q-174 0 -286.5 -121t-112.5 -309zM526 1696q0 48 36 84.5t85 36.5t84 -35.5t35 -85.5q0 -53 -33.5 -87t-85.5 -34t-86.5 34.5t-34.5 86.5zM890 1696 q0 48 36.5 84.5t84.5 36.5q49 0 84 -35.5t35 -85.5q0 -53 -33 -87t-86 -34q-51 0 -86 34.5t-35 86.5z"/>
<glyph glyph-name="multiply" horiz-adv-x="1706" unicode="×" d="M416 1202l450 -450l451 450l141 -139l-450 -453l450 -450l-141 -140l-451 451l-450 -451l-140 140l451 450l-451 453z"/>
<glyph glyph-name="Oslash" horiz-adv-x="1657" unicode="Ø" d="M213 258q-74 96 -109.5 199.5t-35.5 226.5q0 331 212 534t560 203q134 0 247 -34.5t209 -104.5l189 178l139 -143l-182 -174q75 -100 111 -208.5t36 -236.5q0 -155 -55.5 -287.5t-163.5 -234.5q-107 -103 -243.5 -152t-315.5 -49q-135 0 -246.5 35t-210.5 109l-188 -182 l-139 143zM1180 913l-598 -565q56 -40 116 -59t129 -19q173 0 291.5 124.5t118.5 303.5q0 59 -14 112t-43 103zM473 492l586 563q-52 38 -106 55.5t-117 17.5q-178 0 -298 -121t-120 -300q0 -58 13.5 -111t41.5 -104z"/>
<glyph glyph-name="Ugrave" horiz-adv-x="1579" unicode="Ù" d="M1450 1399v-801q0 -294 -174.5 -458.5t-487.5 -164.5q-312 0 -486.5 164.5t-174.5 458.5v801h352v-787q0 -167 80 -255.5t232 -88.5q151 0 230 88t79 256v787h350zM938 1534h-131l-295 346h222z"/>
<glyph glyph-name="Uacute" horiz-adv-x="1579" unicode="Ú" d="M1450 1399v-801q0 -294 -174.5 -458.5t-487.5 -164.5q-312 0 -486.5 164.5t-174.5 458.5v801h352v-787q0 -167 80 -255.5t232 -88.5q151 0 230 88t79 256v787h350zM644 1534l204 348h222l-295 -348h-131z"/>
<glyph glyph-name="Ucircumflex" horiz-adv-x="1579" unicode="Û" d="M1450 1399v-801q0 -294 -174.5 -458.5t-487.5 -164.5q-312 0 -486.5 164.5t-174.5 458.5v801h352v-787q0 -167 80 -255.5t232 -88.5q151 0 230 88t79 256v787h350zM494 1532l188 348h218l188 -348h-131l-166 209l-168 -209h-129z"/>
<glyph glyph-name="Udieresis" horiz-adv-x="1579" unicode="Ü" d="M1450 1399v-801q0 -294 -174.5 -458.5t-487.5 -164.5q-312 0 -486.5 164.5t-174.5 458.5v801h352v-787q0 -167 80 -255.5t232 -88.5q151 0 230 88t79 256v787h350zM488 1696q0 48 36 84.5t85 36.5t84 -35.5t35 -85.5q0 -53 -33.5 -87t-85.5 -34t-86.5 34.5t-34.5 86.5z M852 1696q0 48 36.5 84.5t84.5 36.5q49 0 84 -35.5t35 -85.5q0 -53 -33 -87t-86 -34q-51 0 -86 34.5t-35 86.5z"/>
<glyph glyph-name="Yacute" horiz-adv-x="1372" unicode="Ý" d="M508 0v633l-551 766h420l307 -453l315 453h416l-557 -764v-635h-350zM539 1534l204 348h222l-295 -348h-131z"/>
<glyph glyph-name="Thorn" horiz-adv-x="1270" unicode="Þ" d="M137 0v1399h352v-264h164q287 0 422 -104t135 -322q0 -212 -147.5 -319t-437.5 -107h-136v-283h-352zM655 557q99 0 147 39.5t48 120.5q0 76 -49.5 116.5t-143.5 40.5h-168v-317h166z"/>
<glyph glyph-name="germandbls" horiz-adv-x="1161" unicode="ß" d="M115 0v995q0 198 122 308t341 110q217 0 341.5 -96.5t124.5 -261.5q0 -86 -41.5 -149t-128.5 -109q119 -47 173.5 -137.5t54.5 -239.5q0 -210 -111 -325t-313 -115q-27 0 -56 3.5t-65 12.5v199h31q118 0 169.5 59t51.5 197q0 136 -60 200t-192 68v145q100 3 147.5 45.5 t47.5 130.5q0 74 -44 117t-118 43q-94 0 -134 -51.5t-40 -177.5v-971h-301z"/>
<glyph glyph-name="agrave" horiz-adv-x="1057" unicode="à" d="M621 88q-67 -54 -139.5 -80t-155.5 -26q-137 0 -207 66.5t-70 197.5q0 114 103.5 187.5t453.5 174.5q1 5 1.5 11t0.5 16q0 68 -45.5 100.5t-140.5 32.5q-80 0 -164 -39t-164 -113l4 236q86 58 189.5 86.5t232.5 28.5q205 0 297 -79t92 -253v-377q0 -33 9 -46t30 -13 q19 0 39.5 5t54.5 19v-166q-81 -39 -143.5 -57t-118.5 -18q-71 0 -111.5 26.5t-47.5 79.5zM606 227v232q-153 -54 -204.5 -94.5t-51.5 -96.5q0 -46 28 -73t77 -27q33 0 71 15t80 44zM661 1079h-131l-295 346h222z"/>
<glyph glyph-name="aacute" horiz-adv-x="1057" unicode="á" d="M621 88q-67 -54 -139.5 -80t-155.5 -26q-137 0 -207 66.5t-70 197.5q0 114 103.5 187.5t453.5 174.5q1 5 1.5 11t0.5 16q0 68 -45.5 100.5t-140.5 32.5q-80 0 -164 -39t-164 -113l4 236q86 58 189.5 86.5t232.5 28.5q205 0 297 -79t92 -253v-377q0 -33 9 -46t30 -13 q19 0 39.5 5t54.5 19v-166q-81 -39 -143.5 -57t-118.5 -18q-71 0 -111.5 26.5t-47.5 79.5zM606 227v232q-153 -54 -204.5 -94.5t-51.5 -96.5q0 -46 28 -73t77 -27q33 0 71 15t80 44zM367 1079l204 348h222l-295 -348h-131z"/>
<glyph glyph-name="acircumflex" horiz-adv-x="1057" unicode="â" d="M621 88q-67 -54 -139.5 -80t-155.5 -26q-137 0 -207 66.5t-70 197.5q0 114 103.5 187.5t453.5 174.5q1 5 1.5 11t0.5 16q0 68 -45.5 100.5t-140.5 32.5q-80 0 -164 -39t-164 -113l4 236q86 58 189.5 86.5t232.5 28.5q205 0 297 -79t92 -253v-377q0 -33 9 -46t30 -13 q19 0 39.5 5t54.5 19v-166q-81 -39 -143.5 -57t-118.5 -18q-71 0 -111.5 26.5t-47.5 79.5zM606 227v232q-153 -54 -204.5 -94.5t-51.5 -96.5q0 -46 28 -73t77 -27q33 0 71 15t80 44zM217 1077l188 348h218l188 -348h-131l-166 209l-168 -209h-129z"/>
<glyph glyph-name="atilde" horiz-adv-x="1057" unicode="ã" d="M621 88q-67 -54 -139.5 -80t-155.5 -26q-137 0 -207 66.5t-70 197.5q0 114 103.5 187.5t453.5 174.5q1 5 1.5 11t0.5 16q0 68 -45.5 100.5t-140.5 32.5q-80 0 -164 -39t-164 -113l4 236q86 58 189.5 86.5t232.5 28.5q205 0 297 -79t92 -253v-377q0 -33 9 -46t30 -13 q19 0 39.5 5t54.5 19v-166q-81 -39 -143.5 -57t-118.5 -18q-71 0 -111.5 26.5t-47.5 79.5zM606 227v232q-153 -54 -204.5 -94.5t-51.5 -96.5q0 -46 28 -73t77 -27q33 0 71 15t80 44zM815 1364q-23 -118 -71.5 -172.5t-127.5 -54.5q-16 0 -33.5 2.5t-35.5 7.5l-85 25 q-20 5 -36 7.5t-27 2.5q-33 0 -54 -16.5t-32 -51.5h-100q20 110 67.5 164.5t124.5 54.5q14 0 33.5 -3t50.5 -11l89 -25q13 -3 25.5 -4.5t25.5 -1.5q31 0 54 20.5t32 55.5h100z"/>
<glyph glyph-name="adieresis" horiz-adv-x="1057" unicode="ä" d="M621 88q-67 -54 -139.5 -80t-155.5 -26q-137 0 -207 66.5t-70 197.5q0 114 103.5 187.5t453.5 174.5q1 5 1.5 11t0.5 16q0 68 -45.5 100.5t-140.5 32.5q-80 0 -164 -39t-164 -113l4 236q86 58 189.5 86.5t232.5 28.5q205 0 297 -79t92 -253v-377q0 -33 9 -46t30 -13 q19 0 39.5 5t54.5 19v-166q-81 -39 -143.5 -57t-118.5 -18q-71 0 -111.5 26.5t-47.5 79.5zM606 227v232q-153 -54 -204.5 -94.5t-51.5 -96.5q0 -46 28 -73t77 -27q33 0 71 15t80 44zM211 1241q0 48 36 84.5t85 36.5t84 -35.5t35 -85.5q0 -53 -33.5 -87t-85.5 -34t-86.5 34.5 t-34.5 86.5zM575 1241q0 48 36.5 84.5t84.5 36.5q49 0 84 -35.5t35 -85.5q0 -53 -33 -87t-86 -34q-51 0 -86 34.5t-35 86.5z"/>
<glyph glyph-name="aring" horiz-adv-x="1057" unicode="å" d="M606 227v232q-153 -54 -204.5 -94.5t-51.5 -96.5q0 -46 28 -73t77 -27q33 0 71 15t80 44zM621 88q-67 -54 -139.5 -80t-155.5 -26q-137 0 -207 66.5t-70 197.5q0 114 103.5 187.5t453.5 174.5q1 5 1.5 11t0.5 16q0 68 -45.5 100.5t-140.5 32.5q-80 0 -164 -39t-164 -113 l4 236q86 58 189.5 86.5t232.5 28.5q205 0 297 -79t92 -253v-377q0 -33 9 -46t30 -13q19 0 39.5 5t54.5 19v-166q-81 -39 -143.5 -57t-118.5 -18q-71 0 -111.5 26.5t-47.5 79.5zM266 1290q0 106 73 179t179 73q107 0 180.5 -73t73.5 -179t-74 -180t-180 -74 q-105 0 -178.5 74.5t-73.5 179.5zM403 1290q0 -47 35 -81.5t82 -34.5q49 0 83 34t34 82q0 49 -34 83t-83 34q-48 0 -82.5 -34t-34.5 -83z"/>
<glyph glyph-name="ae" horiz-adv-x="1640" unicode="æ" d="M918 567l368 1q-9 93 -55.5 144.5t-122.5 51.5q-79 0 -128 -50.5t-62 -146.5zM606 422q-127 -3 -191.5 -41.5t-64.5 -112.5q0 -46 28 -73t77 -27q33 0 71 15t80 44v195zM727 127q-105 -77 -197.5 -111t-193.5 -34q-142 0 -215.5 65t-73.5 191q0 143 141 226t418 103 q1 9 1.5 20t0.5 29q0 82 -42.5 117t-143.5 35q-80 0 -164 -39t-164 -113v236q91 58 195 87.5t221 29.5q91 0 165 -22t140 -68q66 44 138 66t153 22q224 0 352.5 -142.5t128.5 -392.5v-10h-672v-4q0 -114 77 -179t210 -65q90 0 181.5 32t181.5 95v-197q-98 -63 -206 -93.5 t-237 -30.5q-140 0 -233 34.5t-162 112.5z"/>
<glyph glyph-name="ccedilla" horiz-adv-x="969" unicode="ç" d="M907 43q-67 -31 -141.5 -46t-161.5 -15q-255 0 -404 132.5t-149 358.5q0 224 147.5 360t393.5 136q78 0 152 -15.5t147 -46.5v-233q-76 31 -138.5 46t-115.5 15q-128 0 -200 -69.5t-72 -192.5q0 -125 73.5 -193.5t210.5 -68.5q59 0 122 15.5t136 47.5v-231zM248 -434v119 q82 -22 146.5 -32.5t109.5 -10.5q53 0 80.5 19t27.5 56q0 42 -33.5 61t-107.5 19q-7 0 -21.5 -1t-21.5 -1v205h90v-94h14q119 0 178.5 -48t59.5 -145q0 -90 -65.5 -140t-184.5 -50q-56 0 -125.5 11t-146.5 32z"/>
<glyph glyph-name="egrave" horiz-adv-x="1090" unicode="è" d="M367 567l368 1q-8 92 -55.5 144t-122.5 52q-77 0 -127.5 -52t-62.5 -145zM1014 104q-97 -63 -204.5 -93.5t-229.5 -30.5q-245 0 -384 134t-139 371q0 219 136 350.5t362 131.5q223 0 352 -142.5t129 -392.5v-10h-671v-4q0 -113 77 -178.5t211 -65.5q90 0 180 32t181 95 v-197zM692 1079h-131l-295 346h222z"/>
<glyph glyph-name="eacute" horiz-adv-x="1090" unicode="é" d="M367 567l368 1q-8 92 -55.5 144t-122.5 52q-77 0 -127.5 -52t-62.5 -145zM1014 104q-97 -63 -204.5 -93.5t-229.5 -30.5q-245 0 -384 134t-139 371q0 219 136 350.5t362 131.5q223 0 352 -142.5t129 -392.5v-10h-671v-4q0 -113 77 -178.5t211 -65.5q90 0 180 32t181 95 v-197zM398 1079l204 348h222l-295 -348h-131z"/>
<glyph glyph-name="ecircumflex" horiz-adv-x="1090" unicode="ê" d="M367 567l368 1q-8 92 -55.5 144t-122.5 52q-77 0 -127.5 -52t-62.5 -145zM1014 104q-97 -63 -204.5 -93.5t-229.5 -30.5q-245 0 -384 134t-139 371q0 219 136 350.5t362 131.5q223 0 352 -142.5t129 -392.5v-10h-671v-4q0 -113 77 -178.5t211 -65.5q90 0 180 32t181 95 v-197zM248 1077l188 348h218l188 -348h-131l-166 209l-168 -209h-129z"/>
<glyph glyph-name="edieresis" horiz-adv-x="1090" unicode="ë" d="M367 567l368 1q-8 92 -55.5 144t-122.5 52q-77 0 -127.5 -52t-62.5 -145zM1014 104q-97 -63 -204.5 -93.5t-229.5 -30.5q-245 0 -384 134t-139 371q0 219 136 350.5t362 131.5q223 0 352 -142.5t129 -392.5v-10h-671v-4q0 -113 77 -178.5t211 -65.5q90 0 180 32t181 95 v-197zM242 1241q0 48 36 84.5t85 36.5t84 -35.5t35 -85.5q0 -53 -33.5 -87t-85.5 -34t-86.5 34.5t-34.5 86.5zM606 1241q0 48 36.5 84.5t84.5 36.5q49 0 84 -35.5t35 -85.5q0 -53 -33 -87t-86 -34q-51 0 -86 34.5t-35 86.5z"/>
<glyph glyph-name="igrave" horiz-adv-x="516" unicode="ì" d="M109 0v948h299v-948h-299zM405 1079h-131l-295 346h222z"/>
<glyph glyph-name="iacute" horiz-adv-x="516" unicode="í" d="M109 0v948h299v-948h-299zM111 1079l204 348h222l-295 -348h-131z"/>
<glyph glyph-name="icircumflex" horiz-adv-x="516" unicode="î" d="M109 0v948h299v-948h-299zM-39 1077l188 348h218l188 -348h-131l-166 209l-168 -209h-129z"/>
<glyph glyph-name="idieresis" horiz-adv-x="516" unicode="ï" d="M109 0v948h299v-948h-299zM-45 1241q0 48 36 84.5t85 36.5t84 -35.5t35 -85.5q0 -53 -33.5 -87t-85.5 -34t-86.5 34.5t-34.5 86.5zM319 1241q0 48 36.5 84.5t84.5 36.5q49 0 84 -35.5t35 -85.5q0 -53 -33 -87t-86 -34q-51 0 -86 34.5t-35 86.5z"/>
<glyph glyph-name="eth" horiz-adv-x="1143" unicode="ð" d="M827 777q-9 78 -35.5 150.5t-68.5 135.5l-313 -90l-43 125l270 78q-33 31 -70 61t-80 59l140 125q54 -25 114 -70.5t129 -113.5l232 66l49 -127l-195 -56q74 -115 111 -256t37 -307q0 -278 -137.5 -426.5t-395.5 -148.5q-231 0 -375.5 127.5t-144.5 328.5 q0 195 142.5 327t351.5 132q85 0 151 -28t131 -92zM358 438q0 -111 59 -179.5t154 -68.5q96 0 154.5 68.5t58.5 179.5t-59 179.5t-154 68.5t-154 -68t-59 -180z"/>
<glyph glyph-name="ntilde" horiz-adv-x="1155" unicode="ñ" d="M109 0v948h297v-119q70 72 147 105t176 33q156 0 239 -94.5t83 -272.5v-600h-299v559q0 101 -32.5 148t-101.5 47q-62 0 -115.5 -38t-96.5 -112v-604h-297zM893 1364q-23 -118 -71.5 -172.5t-127.5 -54.5q-16 0 -33.5 2.5t-35.5 7.5l-85 25q-20 5 -36 7.5t-27 2.5 q-33 0 -54 -16.5t-32 -51.5h-100q20 110 67.5 164.5t124.5 54.5q14 0 33.5 -3t50.5 -11l89 -25q13 -3 25.5 -4.5t25.5 -1.5q31 0 54 20.5t32 55.5h100z"/>
<glyph glyph-name="ograve" horiz-adv-x="1143" unicode="ò" d="M51 473q0 219 144.5 356.5t375.5 137.5q232 0 377.5 -138t145.5 -356q0 -217 -145 -354t-378 -137q-231 0 -375.5 136.5t-144.5 354.5zM358 473q0 -121 58.5 -193.5t154.5 -72.5q97 0 155 72.5t58 193.5t-58.5 194.5t-154.5 73.5q-95 0 -154 -73.5t-59 -194.5zM718 1079 h-131l-295 346h222z"/>
<glyph glyph-name="oacute" horiz-adv-x="1143" unicode="ó" d="M51 473q0 219 144.5 356.5t375.5 137.5q232 0 377.5 -138t145.5 -356q0 -217 -145 -354t-378 -137q-231 0 -375.5 136.5t-144.5 354.5zM358 473q0 -121 58.5 -193.5t154.5 -72.5q97 0 155 72.5t58 193.5t-58.5 194.5t-154.5 73.5q-95 0 -154 -73.5t-59 -194.5zM424 1079 l204 348h222l-295 -348h-131z"/>
<glyph glyph-name="ocircumflex" horiz-adv-x="1143" unicode="ô" d="M51 473q0 219 144.5 356.5t375.5 137.5q232 0 377.5 -138t145.5 -356q0 -217 -145 -354t-378 -137q-231 0 -375.5 136.5t-144.5 354.5zM358 473q0 -121 58.5 -193.5t154.5 -72.5q97 0 155 72.5t58 193.5t-58.5 194.5t-154.5 73.5q-95 0 -154 -73.5t-59 -194.5zM274 1077 l188 348h218l188 -348h-131l-166 209l-168 -209h-129z"/>
<glyph glyph-name="otilde" horiz-adv-x="1143" unicode="õ" d="M51 473q0 219 144.5 356.5t375.5 137.5q232 0 377.5 -138t145.5 -356q0 -217 -145 -354t-378 -137q-231 0 -375.5 136.5t-144.5 354.5zM358 473q0 -121 58.5 -193.5t154.5 -72.5q97 0 155 72.5t58 193.5t-58.5 194.5t-154.5 73.5q-95 0 -154 -73.5t-59 -194.5zM872 1364 q-23 -118 -71.5 -172.5t-127.5 -54.5q-16 0 -33.5 2.5t-35.5 7.5l-85 25q-20 5 -36 7.5t-27 2.5q-33 0 -54 -16.5t-32 -51.5h-100q20 110 67.5 164.5t124.5 54.5q14 0 33.5 -3t50.5 -11l89 -25q13 -3 25.5 -4.5t25.5 -1.5q31 0 54 20.5t32 55.5h100z"/>
<glyph glyph-name="odieresis" horiz-adv-x="1143" unicode="ö" d="M51 473q0 219 144.5 356.5t375.5 137.5q232 0 377.5 -138t145.5 -356q0 -217 -145 -354t-378 -137q-231 0 -375.5 136.5t-144.5 354.5zM358 473q0 -121 58.5 -193.5t154.5 -72.5q97 0 155 72.5t58 193.5t-58.5 194.5t-154.5 73.5q-95 0 -154 -73.5t-59 -194.5zM268 1241 q0 48 36 84.5t85 36.5t84 -35.5t35 -85.5q0 -53 -33.5 -87t-85.5 -34t-86.5 34.5t-34.5 86.5zM632 1241q0 48 36.5 84.5t84.5 36.5q49 0 84 -35.5t35 -85.5q0 -53 -33 -87t-86 -34q-51 0 -86 34.5t-35 86.5z"/>
<glyph glyph-name="divide" horiz-adv-x="1706" unicode="÷" d="M854 1155q62 0 107 -44.5t45 -106.5q0 -63 -44.5 -107.5t-107.5 -44.5t-107.5 44.5t-44.5 107.5t44.5 107t107.5 44zM254 711h1198v-199h-1198v199zM854 369q62 0 107 -45t45 -107q0 -61 -45 -105t-107 -44q-63 0 -107.5 43t-44.5 106t44.5 107.5t107.5 44.5z"/>
<glyph glyph-name="oslash" horiz-adv-x="1143" unicode="ø" d="M150 174q-52 62 -75.5 133t-23.5 166q0 219 144.5 356.5t375.5 137.5q97 0 177 -23.5t153 -73.5l119 113l96 -94l-123 -115q51 -60 75 -129.5t24 -159.5q0 -228 -142.5 -365.5t-378.5 -137.5q-98 0 -178 23.5t-151 74.5l-123 -117l-96 94zM772 571l-338 -309 q30 -28 63.5 -41.5t73.5 -13.5q96 0 155.5 69.5t59.5 182.5q0 30 -3.5 57.5t-10.5 54.5zM371 379l336 309q-29 27 -62 40t-74 13q-94 0 -154.5 -73.5t-60.5 -190.5q0 -23 4 -48t11 -50z"/>
<glyph glyph-name="ugrave" horiz-adv-x="1155" unicode="ù" d="M750 119q-71 -72 -147 -104.5t-175 -32.5q-156 0 -240 94.5t-84 271.5v600h299v-559q0 -101 32.5 -147.5t101.5 -46.5q62 0 116.5 37.5t96.5 111.5v604h299v-948h-299v119zM725 1079h-131l-295 346h222z"/>
<glyph glyph-name="uacute" horiz-adv-x="1155" unicode="ú" d="M750 119q-71 -72 -147 -104.5t-175 -32.5q-156 0 -240 94.5t-84 271.5v600h299v-559q0 -101 32.5 -147.5t101.5 -46.5q62 0 116.5 37.5t96.5 111.5v604h299v-948h-299v119zM431 1079l204 348h222l-295 -348h-131z"/>
<glyph glyph-name="ucircumflex" horiz-adv-x="1155" unicode="û" d="M750 119q-71 -72 -147 -104.5t-175 -32.5q-156 0 -240 94.5t-84 271.5v600h299v-559q0 -101 32.5 -147.5t101.5 -46.5q62 0 116.5 37.5t96.5 111.5v604h299v-948h-299v119zM281 1077l188 348h218l188 -348h-131l-166 209l-168 -209h-129z"/>
<glyph glyph-name="udieresis" horiz-adv-x="1155" unicode="ü" d="M750 119q-71 -72 -147 -104.5t-175 -32.5q-156 0 -240 94.5t-84 271.5v600h299v-559q0 -101 32.5 -147.5t101.5 -46.5q62 0 116.5 37.5t96.5 111.5v604h299v-948h-299v119zM275 1241q0 48 36 84.5t85 36.5t84 -35.5t35 -85.5q0 -53 -33.5 -87t-85.5 -34t-86.5 34.5 t-34.5 86.5zM639 1241q0 48 36.5 84.5t84.5 36.5q49 0 84 -35.5t35 -85.5q0 -53 -33 -87t-86 -34q-51 0 -86 34.5t-35 86.5z"/>
<glyph glyph-name="yacute" horiz-adv-x="979" unicode="ý" d="M360 -465h-313l281 617l-361 796h320l192 -463l205 463h315zM342 1079l204 348h222l-295 -348h-131z"/>
<glyph glyph-name="thorn" horiz-adv-x="1171" unicode="þ" d="M109 -465v1864h297v-518q55 45 119 66.5t143 21.5q199 0 323.5 -137.5t124.5 -358.5q0 -220 -124.5 -356.5t-323.5 -136.5q-78 0 -143 22t-119 68v-535h-297zM406 680v-406q37 -30 79.5 -44.5t92.5 -14.5q103 0 165 70.5t62 189.5q0 121 -64 192.5t-172 71.5 q-39 0 -80.5 -15t-82.5 -44z"/>
<glyph glyph-name="dotlessi" horiz-adv-x="516" unicode="ı" d="M109 0v948h299v-948h-299z"/>
<glyph glyph-name="OE" horiz-adv-x="2060" unicode="Œ" d="M1114 0h-156q-219 0 -337 24.5t-213 79.5q-163 97 -250.5 251.5t-87.5 344.5q0 184 81.5 337.5t231.5 248.5q94 61 216 87t384 26h74h901v-258h-588v-285h561v-260h-561v-334h604v-262h-860zM1020 260v877h-117q-121 0 -185 -15.5t-116 -52.5q-82 -57 -128 -155t-46 -216 q0 -117 46 -214t128 -154q54 -38 117 -54t184 -16h117z"/>
<glyph glyph-name="oe" horiz-adv-x="1815" unicode="œ" d="M1092 567l368 1q-8 92 -55.5 144t-122.5 52q-77 0 -127.5 -52t-62.5 -145zM930 104q-82 -63 -169.5 -93.5t-185.5 -30.5q-231 0 -377.5 138t-146.5 355q0 218 145 356t375 138q110 0 197.5 -31.5t161.5 -97.5q71 65 155 96t191 31q228 0 356.5 -142t128.5 -395v-6h-671 v-4q0 -112 76.5 -177t209.5 -65q90 0 181.5 32t181.5 95v-197q-98 -63 -204 -93.5t-228 -30.5q-112 0 -203 29.5t-174 92.5zM358 473q0 -121 58.5 -193.5t154.5 -72.5q97 0 155 72.5t58 193.5t-58.5 194.5t-154.5 73.5q-95 0 -154 -73.5t-59 -194.5z"/>
<glyph glyph-name="Scaron" horiz-adv-x="1223" unicode="Š" d="M115 111v311q158 -98 266.5 -137t210.5 -39q103 0 156 31.5t53 93.5q0 50 -33 80.5t-154 72.5q-299 105 -411.5 214.5t-112.5 279.5q0 179 146.5 291t381.5 112q119 0 239 -29t237 -85v-287q-141 71 -253 105t-204 34q-100 0 -152.5 -29t-52.5 -83q0 -44 47 -82.5 t142 -73.5q20 -8 61 -23q200 -74 287 -127q91 -56 137.5 -144t46.5 -206q0 -194 -146.5 -305t-406.5 -111q-130 0 -251.5 34t-233.5 102zM909 1880l-191 -348h-215l-190 348h131l168 -208l166 208h131z"/>
<glyph glyph-name="scaron" horiz-adv-x="844" unicode="š" d="M70 51v211q90 -41 166.5 -63.5t128.5 -22.5q71 0 107 18t36 54q0 30 -27 53.5t-123 63.5q-10 4 -32 13q-273 113 -273 290q0 135 100.5 217t266.5 82q89 0 168.5 -19t154.5 -57v-209q-94 50 -167.5 73t-135.5 23q-54 0 -83 -19t-29 -54q0 -46 162 -113q66 -26 104 -43 q104 -45 151.5 -108t47.5 -156q0 -147 -101.5 -226t-288.5 -79q-93 0 -176.5 17.5t-156.5 53.5zM719 1425l-191 -348h-215l-190 348h131l168 -208l166 208h131z"/>
<glyph glyph-name="Ydieresis" horiz-adv-x="1372" unicode="Ÿ" d="M508 0v633l-551 766h420l307 -453l315 453h416l-557 -764v-635h-350zM383 1696q0 48 36 84.5t85 36.5t84 -35.5t35 -85.5q0 -53 -33.5 -87t-85.5 -34t-86.5 34.5t-34.5 86.5zM747 1696q0 48 36.5 84.5t84.5 36.5q49 0 84 -35.5t35 -85.5q0 -53 -33 -87t-86 -34 q-51 0 -86 34.5t-35 86.5z"/>
<glyph glyph-name="circumflex" horiz-adv-x="1024" unicode="ˆ" d="M215 1077l188 348h218l188 -348h-131l-166 209l-168 -209h-129z"/>
<glyph glyph-name="caron" horiz-adv-x="1024" unicode="ˇ" d="M809 1425l-191 -348h-215l-190 348h131l168 -208l166 208h131z"/>
<glyph glyph-name="tilde" horiz-adv-x="1024" unicode="˜" d="M813 1364q-23 -118 -71.5 -172.5t-127.5 -54.5q-16 0 -33.5 2.5t-35.5 7.5l-85 25q-20 5 -36 7.5t-27 2.5q-33 0 -54 -16.5t-32 -51.5h-100q20 110 67.5 164.5t124.5 54.5q14 0 33.5 -3t50.5 -11l89 -25q13 -3 25.5 -4.5t25.5 -1.5q31 0 54 20.5t32 55.5h100z"/>
<glyph glyph-name="pi" horiz-adv-x="1319" unicode="π" d="M1354 1092l-39 -224h-176l-154 -868h-287l152 868h-238l-151 -868h-287l152 868h-25q-55 0 -84 -31t-39 -99l-213 -1q29 199 123 277t311 78h955z"/>
<glyph glyph-name="endash" horiz-adv-x="1024" unicode="–" d="M0 385v197h1024v-197h-1024z"/>
<glyph glyph-name="emdash" horiz-adv-x="2048" unicode="—" d="M0 385v197h2048v-197h-2048z"/>
<glyph glyph-name="quoteleft" horiz-adv-x="559" unicode="‘" d="M360 1112q46 -14 73.5 -55t27.5 -96q0 -75 -53 -128t-127 -53q-88 0 -139.5 58.5t-51.5 158.5q0 159 106 278t273 146v-59q-55 -59 -82 -116.5t-27 -115.5v-18z"/>
<glyph glyph-name="quotesinglbase" horiz-adv-x="559" unicode="‚" d="M199 8q-46 14 -73.5 55t-27.5 97q0 74 53 127t128 53q87 0 138.5 -58.5t51.5 -158.5q0 -158 -106 -277.5t-273 -146.5v59q55 60 82 118t27 118v14z"/>
<glyph glyph-name="quotedblleft" horiz-adv-x="1090" unicode="“" d="M891 1112q46 -14 73 -55t27 -96q0 -75 -52.5 -128t-127.5 -53q-87 0 -138.5 58.5t-51.5 158.5q0 159 105.5 278t272.5 146v-59q-54 -59 -81 -116.5t-27 -115.5v-18zM360 1112q46 -14 73.5 -55t27.5 -96q0 -75 -53 -128t-127 -53q-88 0 -139.5 58.5t-51.5 158.5 q0 159 106 278t273 146v-59q-55 -59 -82 -116.5t-27 -115.5v-18z"/>
<glyph glyph-name="quotedblright" horiz-adv-x="1090" unicode="”" d="M199 1092q-46 13 -72.5 54t-26.5 97q0 75 52 126.5t127 51.5q87 0 138.5 -57.5t51.5 -157.5q0 -159 -106 -279t-273 -147v62q55 59 82 116.5t27 114.5v19zM729 1092q-46 13 -73 54.5t-27 96.5q0 74 52.5 126t127.5 52q88 0 139 -57.5t51 -157.5q0 -159 -106 -279 t-272 -147v62q54 59 81 116.5t27 114.5v19z"/>
<glyph glyph-name="dagger" d="M461 756l-373 -49v286l373 -43l-45 449h286l-47 -449l373 43v-286l-373 49l47 -940h-286z" unicode="†"/>
<glyph glyph-name="daggerdbl" d="M469 831l-381 -55v281l381 -49l-47 391h274l-49 -391l381 49v-281l-381 55l49 -225l-49 -223l381 53v-278l-381 49l49 -391h-274l47 391l-381 -49v278l381 -53l-47 223z" unicode="‡"/>
<glyph glyph-name="ellipsis" horiz-adv-x="2048" unicode="…" d="M163 160q0 74 52 127t127 53q76 0 128 -52t52 -128q0 -74 -53 -126t-127 -52q-75 0 -127 51.5t-52 126.5zM845 160q0 74 52 127t127 53q76 0 128 -52t52 -128q0 -74 -53 -126t-127 -52q-75 0 -127 51.5t-52 126.5zM1530 160q0 74 52 127t127 53q76 0 128 -52t52 -128 q0 -74 -53 -126t-127 -52q-75 0 -127 51.5t-52 126.5z"/>
<glyph glyph-name="perthousand" horiz-adv-x="2939" unicode="‰" d="M51 1004q0 175 121.5 296t296.5 121q174 0 296 -121.5t122 -295.5t-122 -295t-296 -121q-175 0 -296.5 121t-121.5 295zM279 1004q0 -80 55 -135.5t135 -55.5q79 0 134.5 55.5t55.5 135.5q0 79 -55 134.5t-135 55.5t-135 -55.5t-55 -134.5zM440 -25l944 1446h168 l-948 -1446h-164zM1104 391q0 175 121.5 296.5t296.5 121.5q174 0 295.5 -121.5t121.5 -296.5q0 -173 -122 -294.5t-295 -121.5q-175 0 -296.5 121t-121.5 295zM2277 391q0 -80 55.5 -135t135.5 -55q79 0 134.5 55.5t55.5 134.5q0 80 -55 135.5t-135 55.5t-135.5 -55.5 t-55.5 -135.5zM2054 391q0 175 121.5 296.5t296.5 121.5q174 0 295 -121.5t121 -296.5q0 -173 -121 -294.5t-295 -121.5q-175 0 -296.5 121t-121.5 295zM1331 391q0 -80 55.5 -135t135.5 -55q79 0 134.5 55.5t55.5 134.5q0 80 -55 135.5t-135 55.5t-135.5 -55.5 t-55.5 -135.5z"/>
<glyph glyph-name="guilsinglleft" horiz-adv-x="633" unicode="‹" d="M557 150h-238l-243 325l243 324h238l-238 -324z"/>
<glyph glyph-name="guilsinglright" horiz-adv-x="633" unicode="›" d="M76 150l237 325l-237 324h237l244 -324l-244 -325h-237z"/>
<glyph glyph-name="trademark" horiz-adv-x="1706" unicode="™" d="M207 1462h485v-112h-168v-435h-149v435h-168v112zM803 1462h196l127 -332l123 332h197v-547h-135v410l-154 -410h-61l-158 410v-410h-135v547z"/>
<glyph glyph-name="partialdiff" horiz-adv-x="1094" unicode="∂" d="M700 518q0 116 -38.5 178t-110.5 62q-101 0 -167.5 -134t-66.5 -341q0 -117 38.5 -177.5t111.5 -60.5q101 0 167 133.5t66 339.5zM762 662q19 99 29 188.5t10 155.5q0 100 -26 157.5t-70 57.5t-146 -73t-160 -73q-42 0 -71 30t-29 73q0 64 86.5 118t210.5 54 q192 0 309 -161.5t117 -432.5q0 -339 -156.5 -560t-396.5 -221q-171 0 -282 114.5t-111 291.5q0 198 116 329.5t287 131.5q102 0 170 -43.5t113 -136.5z"/>
<glyph glyph-name="product" horiz-adv-x="1612" unicode="∏" d="M150 1473h1308v-1866h-344v1577h-620v-1577h-344v1866z"/>
<glyph glyph-name="summation" horiz-adv-x="1470" unicode="∑" d="M66 1473h1308v-265h-878l620 -645l-622 -690h933v-266h-1386v172l698 772l-673 690v232z"/>
<glyph glyph-name="minus" horiz-adv-x="1706" unicode="−" d="M254 713h1198v-203h-1198v203z"/>
<glyph glyph-name="radical" horiz-adv-x="1346" unicode="√" d="M1141 1694h207v-129h-103l-592 -1606h-100l-311 858l-140 -51l-30 113l331 116l236 -661z"/>
<glyph glyph-name="infinity" horiz-adv-x="1706" unicode="∞" d="M858 457q-68 -132 -146.5 -195t-174.5 -63q-140 0 -236 117.5t-96 293.5q0 184 85.5 297t223.5 113q92 0 170 -60t164 -198q68 132 148 196t175 64q139 0 235.5 -118.5t96.5 -293.5q0 -183 -86 -296t-223 -113q-93 0 -170.5 58.5t-165.5 197.5zM766 659 q-44 75 -105.5 112.5t-140.5 37.5q-94 0 -152.5 -56t-58.5 -145q0 -85 54 -141.5t135 -56.5q75 0 138 58t130 191zM942 561q45 -75 106.5 -113t139.5 -38q94 0 152.5 55.5t58.5 144.5q0 87 -54 143t-135 56q-75 0 -138 -57.5t-130 -190.5z"/>
<glyph glyph-name="approxequal" horiz-adv-x="1706" unicode="≈" d="M1530 1008v-220q-106 -71 -196.5 -104t-180.5 -33q-94 0 -286 65.5t-304 65.5q-82 0 -170 -35t-215 -122v219q107 71 204 107t183 36q125 0 316.5 -65.5t273.5 -65.5q84 0 171 35t204 117zM1530 596v-219q-106 -72 -198 -105.5t-181 -33.5q-95 0 -286.5 66.5t-301.5 66.5 q-84 0 -174.5 -37t-210.5 -121v219q111 73 206.5 108t180.5 35q124 0 315.5 -65.5t274.5 -65.5q86 0 174 35.5t201 116.5z"/>
<glyph glyph-name="notequal" horiz-adv-x="1706" unicode="≠" d="M1198 1233l148 -119l-154 -192h260v-191h-389l-191 -239h580v-193h-707l-245 -309l-148 119l154 190h-252v193h377l190 239h-567v191h696z"/>
<glyph glyph-name="lessequal" horiz-adv-x="1706" unicode="≤" d="M1448 1241v-209l-834 -264l834 -262v-209l-1190 385v174zM258 195h1192v-197h-1192v197z"/>
<glyph glyph-name="greaterequal" horiz-adv-x="1706" unicode="≥" d="M260 1241l1188 -385v-174l-1188 -385v209l832 262l-832 264v209zM258 195h1192v-197h-1192v197z"/>
<glyph glyph-name="lozenge" horiz-adv-x="1012" unicode="◊" d="M506 1653l500 -1061l-500 -1069l-500 1069zM506 1409l-385 -817l385 -825l385 825z"/>
</font>
</defs>
</svg>
